<svg width="381" height="381" viewBox="0 0 381 381" fill="none" xmlns="http://www.w3.org/2000/svg">
<path fill-rule="evenodd" clip-rule="evenodd" d="M218.402 278.238C218.397 278.785 210.176 283.827 205.396 286.215C200.022 288.9 199.717 288.963 195.151 288.323C177.646 285.867 161.197 280.498 145.851 272.229C133.941 265.812 122.617 257.834 113.76 249.622L110.133 246.259V240.32C110.133 231.976 109.463 230.656 105.089 230.378C103.77 230.294 102.691 230.098 102.691 229.942C102.691 229.787 103.113 228.707 103.628 227.542L104.565 225.424L110.232 230.794C121.431 241.406 129.214 247.656 139.154 254.017C157.505 265.762 172.443 271.219 197.941 275.495C202.136 276.198 207.745 276.961 210.406 277.191C217.042 277.762 218.405 277.941 218.402 278.238Z" fill="#84DCF2"/>
<path fill-rule="evenodd" clip-rule="evenodd" d="M138.782 293.943C140.521 294.619 142.104 295.312 142.298 295.484C143.276 296.347 135.744 295.034 130.969 293.509C125.022 291.61 115.829 287.476 111.561 284.782L110.133 283.88V280.741V277.602L115.249 281.035C123.643 286.668 132.348 291.443 138.782 293.943Z" fill="#84DCF2"/>
<path fill-rule="evenodd" clip-rule="evenodd" d="M235.114 259.891C231.865 264.301 229.049 267.721 226.458 270.402L224.57 272.356L222.324 272.293C219.797 272.223 218.872 272.154 212.824 271.587C206.138 270.961 206.138 270.961 211.56 269.204C219.391 266.665 226.363 263.246 233.846 258.271C234.072 258.121 234.288 257.978 234.494 257.841C237.582 255.788 238.431 255.229 238.488 255.302C238.51 255.329 238.419 255.446 238.294 255.607C238.286 255.617 238.277 255.628 238.269 255.639C238.041 255.932 236.621 257.845 235.114 259.891Z" fill="#84DCF2"/>
<path fill-rule="evenodd" clip-rule="evenodd" d="M211.707 306.322C211.708 309.405 208.779 312.538 204.484 314.048C199.191 315.908 192.87 314.887 189.87 311.688C188.193 309.899 187.45 307.615 187.243 303.605L187.06 300.066L191.105 298.831C193.33 298.153 196.866 296.928 198.962 296.111L202.773 294.625L203.985 295.475C208.406 298.577 211.707 303.213 211.707 306.322Z" fill="#84DCF2"/>
<path fill-rule="evenodd" clip-rule="evenodd" d="M243.483 243.334C230.229 255.771 211.343 265.282 196.267 267.11C192.985 267.508 188.25 267.577 186.407 267.254C184.324 266.889 177.775 265.167 173.757 263.929C158.228 259.143 141.106 249.586 127.003 237.832C122.169 233.803 110.938 223.061 108.989 220.603L107.93 219.266L110.172 215.208C113.238 209.66 119.391 200.534 123.693 195.151C131.889 184.895 144.093 173.288 154.4 165.947L157.181 163.965L168.352 163.889C180.1 163.809 187.619 163.283 200.732 161.623C212.29 160.16 229.816 156.871 236.047 154.995L237.798 154.468L239.49 156.764C244.071 162.982 248.376 171.386 250.959 179.152C256.423 195.586 256.075 213.596 249.948 231.428C247.487 238.589 246.393 240.603 243.483 243.334ZM186.272 225.428C180.555 224.618 174.492 219.772 174.506 216.024C174.513 214.207 174.771 213.729 175.997 213.267C177.37 212.749 178.275 213.265 179.998 215.548C181.181 217.113 182.131 217.891 183.972 218.797C186.237 219.912 186.586 219.977 189.468 219.819C193.947 219.573 197.013 217.717 198.5 214.353C199.538 212.003 199.649 211.897 201.2 211.781C202.422 211.69 202.821 211.83 203.301 212.515C204.579 214.34 203.475 217.925 200.682 221.016C198.934 222.951 194.841 224.981 192.086 225.281C190.907 225.409 189.607 225.564 189.198 225.626C188.788 225.687 187.472 225.598 186.272 225.428ZM150.13 216.301C146.903 214.605 145.092 211.372 144.816 206.814C144.432 200.473 148.229 194.943 152.945 194.973C160.309 195.02 164.246 206.873 159.144 213.637C156.951 216.545 152.883 217.747 150.13 216.301ZM218.499 211.669C216.569 210.714 215.242 209.196 213.98 206.499C213.172 204.773 213.022 203.928 213.025 201.104C213.028 198.212 213.174 197.438 214.095 195.426C214.682 194.144 215.796 192.523 216.571 191.823C217.785 190.726 219.951 189.76 221.196 189.76C222.465 189.76 224.62 190.738 225.902 191.896C230.825 196.345 231.1 205.852 226.43 210.157C223.896 212.492 221.2 213.006 218.499 211.669Z" fill="#84DCF2"/>
<path fill-rule="evenodd" clip-rule="evenodd" d="M106.675 209.848C103.543 215.007 98.8272 223.857 97.132 227.757L95.8973 230.597L90.3645 230.616C87.3215 230.627 84.8318 230.556 84.8318 230.459C84.8318 229.635 88.0528 222.333 90.8079 216.912C94.5106 209.626 99.1613 202.008 103.419 196.253C113.295 182.906 121.96 173.325 132.457 164.146C135.774 161.245 136.072 161.069 137.294 161.284C143.071 162.302 145.156 162.592 146.688 162.593C148.548 162.595 148.887 162.891 147.804 163.567C145.804 164.816 137.084 172.445 132.125 177.284C121.517 187.635 115.435 195.417 106.675 209.848Z" fill="#84DCF2"/>
<path fill-rule="evenodd" clip-rule="evenodd" d="M87.1821 182.873C80.8848 192.339 74.7833 203.612 71.0718 212.638C69.9778 215.299 68.3649 219.546 67.4874 222.076C66.3222 225.437 65.8417 226.44 65.7053 225.797C65.6025 225.313 65.2673 223.745 64.9603 222.312C64.1266 218.422 63.2517 211.27 63.2517 208.344C63.2517 206.194 63.5135 205.091 64.8147 201.759C66.8341 196.586 71.7271 186.901 74.7951 182.003C79.2333 174.916 88.6482 162.919 94.5571 156.819L97.4486 153.835L103.418 155.296L109.387 156.757L102.969 163.304C96.4679 169.936 92.5908 174.742 87.1821 182.873Z" fill="#84DCF2"/>
<path fill-rule="evenodd" clip-rule="evenodd" d="M88.2716 155.079C82.5385 161.5 74.5207 171.578 71.0449 176.733C70.1481 178.064 68.2652 181.161 66.8606 183.617C64.4513 187.829 64.3198 187.987 64.5356 186.407C65.1884 181.631 68.6766 171.53 71.7557 165.501C75.0638 159.024 80.5455 150.833 82.126 150.007C82.5933 149.762 83.9572 150.034 86.8075 150.938L90.8297 152.215L88.2716 155.079Z" fill="#84DCF2"/>
<path fill-rule="evenodd" clip-rule="evenodd" d="M123.135 165.085C102.818 184.636 90.4699 201.995 80.7063 224.731L78.2297 230.498L74.6475 230.604C72.2397 230.676 71.0652 230.577 71.0652 230.304C71.0652 229.383 74.5986 219.522 76.6753 214.647C81.1292 204.191 86.2754 194.751 92.6793 185.291C97.2964 178.47 100.766 174.127 106.303 168.241C112.269 161.897 116.738 158.013 117.74 158.301C118.16 158.422 120.501 158.937 122.941 159.445C125.381 159.952 127.45 160.441 127.539 160.53C127.628 160.619 125.646 162.668 123.135 165.085Z" fill="#86F0E3"/>
<path fill-rule="evenodd" clip-rule="evenodd" d="M187.895 293.165C187.895 293.795 177.338 295.924 171.206 296.531C169.086 296.741 167.245 296.898 167.113 296.88C165.078 296.609 157.591 294.721 153.851 293.537C137.004 288.201 121.374 279.575 107.714 268.073C103.245 264.309 102.086 263.163 102.416 262.833C102.535 262.714 103.746 262.479 105.108 262.31C108.864 261.844 110.133 260.241 110.133 255.96V253.68L111.392 254.739C112.084 255.322 114.219 257.127 116.136 258.751C136.179 275.731 161.484 288.155 184.454 292.294C186.347 292.635 187.895 293.027 187.895 293.165Z" fill="#86F0E3"/>
<path fill-rule="evenodd" clip-rule="evenodd" d="M259.398 251.587C258.813 253.085 257.768 255.943 257.077 257.938C256.385 259.933 255.731 261.556 255.623 261.545C253.631 261.343 245.297 257.43 244.954 256.536C244.84 256.24 245.406 254.948 246.211 253.665C247.016 252.383 248.454 249.91 249.407 248.171C250.36 246.432 251.278 244.797 251.447 244.538C251.678 244.186 252.684 244.583 255.451 246.116C257.484 247.242 259.346 248.165 259.59 248.167C260.481 248.175 260.439 248.921 259.398 251.587Z" fill="#86F0E3"/>
<path fill-rule="evenodd" clip-rule="evenodd" d="M143.648 303.93C146.17 310.577 145.12 315.509 140.69 317.823C138.97 318.722 138.282 318.862 135.67 318.847C131.288 318.821 127.565 317.308 125.805 314.836C124.176 312.547 123.505 306.533 124.136 299.859L124.367 297.411L126.831 298.307C129.931 299.433 135.81 300.836 139.794 301.399L142.852 301.831L143.648 303.93Z" fill="#86F0E3"/>
<path fill-rule="evenodd" clip-rule="evenodd" d="M90.4729 337.137C88.2912 337.974 85.7527 338.914 84.8318 339.225C81.6387 340.302 71.5201 340.189 68.4607 339.042C67.8817 338.824 65.5637 338.824 62.3215 339.042C55.5032 339.5 48.1839 338.901 44.3824 337.574L41.6981 336.637L42.2437 335.285C43.2387 332.82 48.0587 329.282 50.4214 329.282C52.0892 329.282 53.3543 328.314 55.2169 325.613C57.4785 322.333 60.6764 319.604 64.5303 317.666C67.0864 316.381 67.9516 316.14 70.5835 315.975C73.5164 315.792 73.7639 315.84 76.0921 317.034C77.4329 317.722 79.6818 319.336 81.0897 320.621C83.383 322.714 83.8129 322.957 85.2186 322.957C86.2709 322.957 87.4151 322.599 88.6932 321.868C90.2611 320.973 91.0936 320.763 93.3894 320.684C98.019 320.526 100.474 321.764 104.033 326.053L106.005 328.428L109.756 328.635C113.054 328.816 113.661 328.959 114.786 329.817C116.416 331.06 118.079 333.23 117.777 333.72C117.649 333.927 116.17 334.538 114.49 335.079C111.449 336.057 111.394 336.06 102.937 335.838L94.4396 335.614L90.4729 337.137Z" fill="#A87478"/>
<path fill-rule="evenodd" clip-rule="evenodd" d="M43.9041 306.214V311.981V317.748H40.1834H36.4627V311.755C36.4627 306.443 36.5295 305.788 37.0512 305.988C37.3749 306.112 39.0492 306.214 40.7719 306.214H43.9041Z" fill="#A74F4C"/>
<path fill-rule="evenodd" clip-rule="evenodd" d="M95.9939 310.504C95.9939 313.91 95.8685 315.206 95.5288 315.311C95.273 315.39 93.515 315.541 91.6221 315.647L88.1804 315.839V310.841V305.842H92.0872H95.9939V310.504Z" fill="#A74F4C"/>
<path fill-rule="evenodd" clip-rule="evenodd" d="M95.9939 273.472L93.2964 273.514C91.8128 273.537 90.1551 273.61 89.6126 273.675C89.0701 273.74 88.526 273.693 88.4034 273.571C88.2808 273.448 88.1804 270.948 88.1804 268.015V262.682H92.0872H95.9939V268.077V273.472Z" fill="#A74F4C"/>
<path fill-rule="evenodd" clip-rule="evenodd" d="M43.9041 263.054V268.263V273.472H40.1834H36.4627V268.263V263.054H40.1834H43.9041Z" fill="#A74F4C"/>
<path fill-rule="evenodd" clip-rule="evenodd" d="M43.9041 223.587V227.135V230.684H40.1559H36.4076L36.5282 227.242L36.6487 223.8L40.2764 223.694L43.9041 223.587Z" fill="#A74F4C"/>
<path fill-rule="evenodd" clip-rule="evenodd" d="M322.553 273.532C322.513 286.457 322.398 297.759 322.298 298.647C322.123 300.202 322.069 300.261 320.839 300.261H319.563L319.749 290.68C319.851 285.411 319.945 274.109 319.957 265.565L319.98 250.031H321.304H322.627L322.553 273.532Z" fill="#A74F4C"/>
<path fill-rule="evenodd" clip-rule="evenodd" d="M308.79 313.696C306.351 314.677 285.277 321.316 276.448 323.885C276.429 323.891 276.409 323.896 276.39 323.902C276.129 323.978 275.88 324.05 275.642 324.119C271.822 325.23 271.061 325.436 270.32 325.378C270.143 325.364 269.967 325.335 269.751 325.3C267.877 324.994 266.066 324.295 258.775 321.063C238.485 312.069 230.96 308.6 231.011 308.26C231.042 308.056 232.446 307.373 234.131 306.742C235.816 306.112 238.424 304.972 239.927 304.209C243.045 302.625 243.739 302.643 246.478 304.38C255.148 309.878 267.671 312.959 279.155 312.418C286.375 312.079 291.178 310.879 297.499 307.838L300.376 306.454L305.806 309.218C308.793 310.737 311.237 312.146 311.237 312.347C311.237 312.548 310.136 313.155 308.79 313.696Z" fill="#F58C4A"/>
<path fill-rule="evenodd" clip-rule="evenodd" d="M294.045 303.473C291.202 304.73 285.904 306.098 282.039 306.571C274.723 307.468 267.103 306.66 259.551 304.186C255.191 302.758 248.919 299.731 248.905 299.048C248.9 298.794 250.436 294.101 252.318 288.618C255.14 280.397 255.843 278.693 256.327 278.897C259.694 280.313 264.692 281.835 268.563 282.625C272.798 283.489 273.88 283.57 279.053 283.408C283.769 283.261 285.457 283.049 288.316 282.249C290.239 281.711 291.851 281.316 291.897 281.371C292.037 281.535 294.293 291.543 295.266 296.312C295.317 296.561 295.365 296.799 295.412 297.028C296.112 300.459 296.35 301.7 295.843 302.408C295.558 302.806 295.038 303.036 294.231 303.391C294.17 303.418 294.108 303.445 294.045 303.473Z" fill="#F58C4A"/>
<path fill-rule="evenodd" clip-rule="evenodd" d="M285.75 250.145C285.75 250.826 285.438 251.129 284.354 251.499C282.247 252.218 273.77 252.341 270.927 251.693C267.942 251.014 266.631 250.386 266.472 249.561C266.337 248.86 271.659 232.868 272.772 230.63C273.6 228.965 276.29 227.503 277.853 227.868C279.773 228.317 280.878 228.901 281.446 229.768C281.998 230.61 285.75 248.375 285.75 250.145Z" fill="#F58C4A"/>
<path fill-rule="evenodd" clip-rule="evenodd" d="M99.6216 256.794C96.9101 256.883 82.8877 256.995 68.4607 257.043C54.0337 257.09 38.1943 257.165 33.2622 257.208L24.2946 257.287L24.0833 247.286C23.9671 241.786 23.9602 237.056 24.068 236.775C24.2317 236.349 28.8452 236.265 52.0687 236.265C67.3613 236.265 85.426 236.154 92.2125 236.018L104.552 235.772V246.202V256.631L99.6216 256.794Z" fill="#F6C863"/>
<path fill-rule="evenodd" clip-rule="evenodd" d="M104.552 300.261L96.645 300.313C92.2965 300.342 74.3804 300.467 56.8315 300.592C39.2827 300.717 24.758 300.763 24.5544 300.695C24.3206 300.616 24.1843 296.678 24.1843 289.998V279.425H64.3679H104.552V289.843V300.261Z" fill="#F6C863"/>
<path fill-rule="evenodd" clip-rule="evenodd" d="M290.65 206.685L285.874 214.588C283.248 218.935 281.015 222.47 280.913 222.444C280.811 222.418 280.35 222.324 279.89 222.236C279.819 222.222 279.753 222.218 279.692 222.215C279.613 222.211 279.542 222.208 279.479 222.185C278.897 221.977 278.904 220.129 278.971 201.102C278.977 199.439 278.983 197.646 278.99 195.711L279.053 176.922L284.809 182.688L290.565 188.454L290.607 197.569L290.65 206.685Z" fill="#FF5959" fill-opacity="0.71"/>
<path fill-rule="evenodd" clip-rule="evenodd" d="M290.638 161.479C290.879 161.479 290.921 165.06 290.759 171.804C290.622 177.482 290.486 182.146 290.456 182.168C290.381 182.221 287.356 178.737 284.007 174.743C282.489 172.933 281.298 171.306 281.359 171.128C281.568 170.525 290.267 161.479 290.638 161.479Z" fill="#FF5959" fill-opacity="0.71"/>
<path fill-rule="evenodd" clip-rule="evenodd" d="M282.8 150.509C284.861 152.552 287.028 154.821 287.615 155.552L288.684 156.881L283.868 161.686L279.053 166.491V156.643V146.796L282.8 150.509Z" fill="#FF5959" fill-opacity="0.71"/>
<path fill-rule="evenodd" clip-rule="evenodd" d="M290.529 132.829C290.671 132.829 290.784 137.182 290.78 142.503C290.776 147.824 290.647 152.177 290.494 152.177C290.34 152.177 290.215 152.019 290.215 151.825C290.215 151.632 288.279 149.443 285.914 146.961C283.549 144.479 281.665 142.301 281.728 142.121C281.902 141.623 290.232 132.829 290.529 132.829Z" fill="#FF5959" fill-opacity="0.71"/>
<path fill-rule="evenodd" clip-rule="evenodd" d="M288.295 128.178L283.959 132.55C281.574 134.955 279.494 136.922 279.337 136.922C279.181 136.922 279.053 132.736 279.053 127.62C279.053 122.504 279.178 118.333 279.332 118.352C279.485 118.37 281.565 120.588 283.953 123.282L288.295 128.178Z" fill="#FF5959" fill-opacity="0.71"/>
<path fill-rule="evenodd" clip-rule="evenodd" d="M290.47 104.684C290.535 104.748 290.63 109.015 290.681 114.165C290.731 119.314 290.663 123.528 290.529 123.528C290.244 123.527 284.377 117.351 282.55 115.129L281.304 113.614L285.828 109.09C288.317 106.602 290.406 104.619 290.47 104.684Z" fill="#FF5959" fill-opacity="0.71"/>
<path fill-rule="evenodd" clip-rule="evenodd" d="M288.043 100.226L283.827 104.428C281.508 106.738 279.485 108.632 279.332 108.637C279.178 108.641 279.053 104.349 279.053 99.0991V89.5537L279.845 90.2625C280.281 90.6523 282.304 93.0536 284.341 95.5988L288.043 100.226Z" fill="#FF5959" fill-opacity="0.71"/>
<path fill-rule="evenodd" clip-rule="evenodd" d="M285.819 84.5412C288.292 84.4835 290.381 84.5019 290.461 84.5822C290.541 84.6624 290.56 87.2522 290.504 90.3374L290.401 95.9468L285.862 90.2965L281.323 84.6461L285.819 84.5412Z" fill="#FF5959" fill-opacity="0.71"/>
<path fill-rule="evenodd" clip-rule="evenodd" d="M290.587 70.0451V74.4621V78.879L286.773 78.8101C284.675 78.7723 282.08 78.6798 281.006 78.6047L279.053 78.468V73.7858V69.1036L283.052 69.3558C285.252 69.4946 287.847 69.7064 288.819 69.8266L290.587 70.0451Z" fill="#FF5959" fill-opacity="0.71"/>
<path fill-rule="evenodd" clip-rule="evenodd" d="M302.636 70.8795L299.499 73.763C297.774 75.349 296.226 76.6465 296.06 76.6465C295.894 76.6465 295.789 75.2234 295.827 73.4839L295.897 70.3214L297.242 70.3581C297.981 70.3784 299.497 70.504 300.611 70.6372L302.636 70.8795Z" fill="#FF5959" fill-opacity="0.71"/>
<path fill-rule="evenodd" clip-rule="evenodd" d="M317.975 72.6206C318.091 72.8087 318.068 74.545 317.923 76.4789C317.661 79.9772 317.654 79.9949 316.68 79.9495C313.374 79.7952 302.051 78.5588 301.829 78.3279C301.479 77.9626 308.509 71.3823 309.035 71.5838C309.257 71.6691 311.312 71.8603 313.601 72.0087C315.891 72.1571 317.859 72.4324 317.975 72.6206Z" fill="#FF5959" fill-opacity="0.71"/>
<path fill-rule="evenodd" clip-rule="evenodd" d="M341.188 73.2979V79.251V85.2042L337.747 85.1398C335.854 85.1045 332.38 84.959 330.026 84.8167C327.673 84.6744 325.036 84.5359 324.166 84.509L322.585 84.46V78.3209C322.585 74.9443 322.71 72.1853 322.864 72.1896C323.017 72.194 326.743 72.4416 331.142 72.7398C335.542 73.038 339.602 73.2856 340.165 73.29L341.188 73.2979Z" fill="#FF5959" fill-opacity="0.71"/>
<path fill-rule="evenodd" clip-rule="evenodd" d="M285.994 50.6016C286.464 52.1056 289.098 63.2985 289.098 63.794C289.098 64.0097 285.367 63.9672 283.052 63.7251C282.101 63.6256 281.657 63.3952 281.657 63.0007C281.657 62.3336 283.136 56.6987 284.52 52.0899L285.47 48.9273L285.994 50.6016Z" fill="#FF5959" fill-opacity="0.71"/>
<path fill-rule="evenodd" clip-rule="evenodd" d="M264.855 67.401C268.838 67.7086 270.495 67.9712 270.495 68.2948C270.495 68.5468 269.079 69.9454 267.348 71.4028L264.201 74.0527L261.57 70.6478C260.123 68.7752 259.001 67.1805 259.077 67.1042C259.154 67.0279 261.754 67.1614 264.855 67.401Z" fill="#FF5959" fill-opacity="0.71"/>
<path fill-rule="evenodd" clip-rule="evenodd" d="M273.844 71.7585V74.0165V76.2745L272.448 76.2374C271.681 76.217 270.659 76.0897 270.177 75.9545C269.353 75.7231 269.436 75.5925 271.573 73.7336L273.844 71.7585Z" fill="#FF5959" fill-opacity="0.71"/>
<path fill-rule="evenodd" clip-rule="evenodd" d="M255.13 69.7672C256.241 70.9928 257.649 72.7073 258.259 73.577L259.369 75.1583L257.397 75.1047C253.929 75.0105 246.145 74.3731 245.945 74.167C245.756 73.9713 247.131 72.6629 251.106 69.2566L253.11 67.5387L255.13 69.7672Z" fill="#FF5959" fill-opacity="0.71"/>
<path fill-rule="evenodd" clip-rule="evenodd" d="M247.613 66.4146L244.128 69.3912C242.212 71.0283 240.442 72.4161 240.196 72.4751C239.949 72.5342 238.682 71.3622 237.38 69.8707C236.078 68.3791 234.666 66.7647 234.243 66.2831L233.474 65.4074L237.939 65.6803C240.394 65.8303 243.576 66.0569 245.008 66.1838L247.613 66.4146Z" fill="#FF5959" fill-opacity="0.71"/>
<path fill-rule="evenodd" clip-rule="evenodd" d="M228.552 66.4756C229.094 66.7991 234.82 73.0235 234.673 73.1303C233.902 73.6934 221.549 72.9919 221.594 72.3875C221.608 72.1938 223.062 70.7144 224.825 69.0999C227.101 67.0159 228.182 66.2548 228.552 66.4756Z" fill="#FF5959" fill-opacity="0.71"/>
<path fill-rule="evenodd" clip-rule="evenodd" d="M223.242 64.3999C223.242 64.587 221.469 66.2052 219.301 67.9958C214.922 71.6135 214.519 71.8928 214.178 71.5512C214.047 71.4205 213.94 69.4939 213.94 67.27V63.2264L215.708 63.4166C216.68 63.5213 218.772 63.7087 220.358 63.8333C221.944 63.9578 223.242 64.2128 223.242 64.3999Z" fill="#FF5959" fill-opacity="0.71"/>
<path fill-rule="evenodd" clip-rule="evenodd" d="M219.964 152.144C208.179 154.493 197.708 155.982 185.663 157.025C178.041 157.684 157.614 157.798 151.618 157.214C141.078 156.188 132.323 154.838 118.69 152.139C95.708 147.588 80.1617 143.571 77.854 141.586C76.5119 140.432 76.394 137.753 77.6309 136.516L78.4294 135.718L86.1885 137.253C100.483 140.083 113.227 141.488 130.596 142.15C166.587 143.521 208.802 138.301 231.369 129.689C233.278 128.96 235.08 128.364 235.374 128.364C236.149 128.364 241.605 131.16 244.636 133.11C248.371 135.514 250.597 137.469 251.311 138.974C251.907 140.231 251.901 140.328 251.157 141.373C248.639 144.91 238.222 148.507 219.964 152.144Z" fill="#F6C864"/>
<path fill-rule="evenodd" clip-rule="evenodd" d="M164.415 135.597C164.335 135.678 160.869 135.925 156.714 136.147C150.03 136.503 133.634 136.595 127.992 136.308C121.09 135.956 112.9 135.283 107.9 134.657C101.377 133.84 87.9008 131.576 84.8647 130.787C81.6887 129.962 81.6697 129.918 82.1985 124.575C83.4283 112.152 87.9211 98.6913 93.7353 90.01C100.241 80.2969 108.293 73.2208 119.062 67.753C123.771 65.3623 127.02 64.194 130.394 63.6791C136.737 62.7105 143.491 65.6428 149.507 71.9771C157.279 80.1609 161.434 91.5295 163.114 109.203C163.691 115.279 164.68 135.333 164.415 135.597Z" fill="#F6C864"/>
<path fill-rule="evenodd" clip-rule="evenodd" d="M195.616 132.401C191.676 133.041 186.287 133.817 183.638 134.125C176.501 134.955 170.933 135.237 170.652 134.783C170.522 134.572 170.248 129.651 170.043 123.848C169.274 102.013 167.272 91.241 161.846 79.7297C156.332 68.0328 147.911 60.0247 138.886 57.8956C138.827 57.8815 138.761 57.8661 138.705 57.8527C137.821 57.6437 137.311 57.5136 137.3 57.3517C137.285 57.1101 138.382 56.7977 141.014 56.047C145.937 54.643 149.634 54.1887 156.083 54.1949C164.643 54.2033 170.74 55.4606 175.366 58.1713C179.255 60.4504 184.26 66.638 189.226 75.3077C194.572 84.641 198.439 96.807 200.915 112.085C201.883 118.061 202.77 126.112 202.775 128.964L202.778 131.238L195.616 132.401Z" fill="#F6C864"/>
<path fill-rule="evenodd" clip-rule="evenodd" d="M230.032 124.187C227.419 125.298 221.722 127.059 216.698 128.31C214.26 128.917 211.556 129.527 210.688 129.665C208.665 129.988 208.621 129.871 208.025 122.597C207.523 116.459 205.841 105.798 204.414 99.7149C201.384 86.7914 197.14 76.4859 191.229 67.6945C189.976 65.8306 189.019 64.2365 189.104 64.1522C189.391 63.8649 196.205 67.3786 199.403 69.4636C209.192 75.8441 218.066 86.0262 223.797 97.4555C226.866 103.575 231.8 119.177 231.8 122.762C231.8 123.212 231.214 123.685 230.032 124.187Z" fill="#F6C864"/>
<path fill-rule="evenodd" clip-rule="evenodd" d="M362.011 240.743C361.995 242.731 361.421 243.874 359.953 244.842C358.718 245.656 357.03 245.687 342.677 245.156C338.277 244.993 324.811 244.521 312.752 244.106C300.694 243.691 290.672 243.196 290.481 243.005C290.29 242.814 289.481 239.336 288.682 235.276C287.674 230.156 286.995 227.574 286.465 226.853C286.045 226.28 285.755 225.611 285.819 225.364C285.942 224.895 290.847 216.936 301.575 199.802C316.809 175.47 320.44 169.813 321.21 169.207C321.698 168.823 322.687 168.561 323.666 168.556C325.091 168.549 325.479 168.734 326.642 169.976C328.391 171.844 330.508 175.812 342.953 200.546C359.305 233.043 362.027 238.783 362.011 240.743ZM336.826 238.522C327.33 238.232 326.986 238.142 326.48 235.839C326.203 234.577 326.651 233.762 329.34 230.633C330.331 229.48 331.142 228.369 331.142 228.164C331.142 227.959 330.012 227.121 328.631 226.301C325.319 224.334 319.236 221.035 319.236 221.205C319.236 221.279 319.613 221.977 320.073 222.756C320.851 224.072 320.903 224.542 320.803 229.381C320.674 235.594 320.314 237.272 319.006 237.77C317.808 238.225 316.343 237.86 315.878 236.99C315.322 235.952 315.437 234.547 316.408 230.537L317.299 226.855L314.914 223.729C313.573 221.973 312.456 220.815 312.362 221.086C312.271 221.351 311.851 222.949 311.429 224.637C309.988 230.411 308.013 235.227 306.515 236.623C304.943 238.088 302.121 237.234 302.121 235.293C302.121 234.893 302.691 233.483 303.389 232.16C305.493 228.166 308.403 218.901 308.438 216.085C308.443 215.666 307.666 215.046 306.221 214.316C304.998 213.699 303.71 212.756 303.36 212.222C303.172 211.935 303.019 211.748 302.96 211.535C302.788 210.909 303.424 210.06 306.351 205.813C308.717 202.378 309.056 202.047 310.926 201.331C315.966 199.402 319.382 199.465 321.837 201.53C324.355 203.649 325.116 207.117 325.702 219.149C325.738 219.892 326.434 220.53 329.152 222.312C331.024 223.54 333.056 224.836 333.668 225.192L334.779 225.839L336.359 223.747C337.227 222.597 338.251 221.343 338.633 220.961C339.44 220.154 341.853 220.019 342.745 220.731C343.465 221.306 351.234 235.627 351.234 236.38C351.234 236.681 350.938 237.292 350.576 237.739C349.733 238.78 348.179 238.868 336.826 238.522ZM321.282 200.445C319.287 199.329 318.007 196.888 318.241 194.643C318.683 190.405 323.656 187.923 327.082 190.232C333.43 194.51 327.944 204.172 321.282 200.445Z" fill="#F6C864"/>
<path fill-rule="evenodd" clip-rule="evenodd" d="M326.48 235.839C326.986 238.142 327.33 238.232 336.826 238.522C348.179 238.868 349.733 238.78 350.576 237.739C350.938 237.292 351.234 236.681 351.234 236.38C351.234 235.627 343.465 221.306 342.745 220.731C341.853 220.019 339.44 220.154 338.633 220.961C338.251 221.343 337.227 222.597 336.359 223.747L334.779 225.839L333.668 225.192C333.056 224.836 331.024 223.54 329.152 222.312C326.434 220.53 325.738 219.892 325.702 219.149C325.116 207.117 324.355 203.649 321.837 201.53C319.382 199.465 315.966 199.402 310.926 201.331C309.056 202.047 308.717 202.378 306.351 205.813C306.126 206.139 305.914 206.446 305.715 206.734C303.331 210.189 302.801 210.957 302.96 211.535C303.006 211.7 303.108 211.849 303.239 212.041C303.277 212.097 303.317 212.157 303.36 212.222C303.71 212.756 304.998 213.699 306.221 214.316C307.666 215.046 308.443 215.666 308.438 216.085C308.403 218.901 305.493 228.166 303.389 232.16C302.691 233.483 302.121 234.893 302.121 235.293C302.121 237.234 304.943 238.088 306.515 236.623C308.013 235.227 309.988 230.411 311.429 224.637C311.851 222.949 312.271 221.351 312.362 221.086C312.456 220.815 313.573 221.973 314.914 223.729L317.299 226.855L316.408 230.537C315.437 234.547 315.322 235.952 315.878 236.99C316.343 237.86 317.808 238.225 319.006 237.77C320.314 237.272 320.674 235.594 320.803 229.381C320.903 224.542 320.851 224.072 320.073 222.756C319.613 221.977 319.236 221.279 319.236 221.205C319.236 221.035 325.319 224.334 328.631 226.301C330.012 227.121 331.142 227.959 331.142 228.164C331.142 228.369 330.331 229.48 329.34 230.633C326.651 233.762 326.203 234.577 326.48 235.839Z" fill="#F6C864"/>
<path d="M69.1295 344.211C66.2835 343.691 64.9448 343.624 62.8043 343.893C56.6889 344.662 46.0302 343.507 40.6423 341.492C38.1905 340.574 36.4627 339.03 36.4627 337.756C36.4627 336.243 39.3233 330.863 41.1874 328.87C43.1073 326.817 45.205 325.591 48.3848 324.662C49.9292 324.211 50.6213 323.766 51.2759 322.805C52.6939 320.722 57.048 316.499 59.36 314.964C64.1215 311.803 69.7286 310.271 73.5956 311.074C76.1611 311.607 78.4389 312.573 80.545 314.022C81.4417 314.639 82.2759 315.144 82.3988 315.144C82.5217 315.144 82.5753 313.093 82.5178 310.586L82.4134 306.028L65.7632 305.931L49.1131 305.834L49.1117 312.628C49.1105 318.71 49.0342 319.547 48.384 320.614C47.0807 322.751 46.0333 323.023 39.6228 322.89C34.1314 322.776 33.8779 322.736 32.9089 321.841C31.1181 320.187 30.8816 319.06 30.8816 312.179V305.842H26.7521C22.1073 305.842 20.6449 305.391 19.6101 303.639C19.0452 302.683 18.976 301.18 18.9808 289.971C18.9868 276.204 18.9927 276.163 21.1752 274.692C22.3019 273.933 22.8773 273.844 26.6578 273.844H30.8816L30.8825 268.356L30.8833 262.868L27.2861 262.988C22.9358 263.133 20.7841 262.481 19.6894 260.686C19.0257 259.597 18.9784 258.673 18.9822 246.869C18.9866 233.269 19.009 233.096 20.9546 231.65C21.8528 230.982 22.6361 230.852 26.4043 230.746L30.805 230.623L30.9363 226.252C31.0592 222.165 31.1335 221.795 32.0844 220.549C33.6964 218.436 35.5377 217.931 41.0566 218.087C45.082 218.201 45.8523 218.325 46.7607 219.002C48.8224 220.54 49.2806 221.879 49.2903 226.397L49.2991 230.498L55.2027 230.6C60.7286 230.696 61.09 230.661 60.8515 230.042C60.3567 228.76 58.8233 221.141 58.1724 216.731C57.2459 210.454 57.2396 195.757 58.1609 189.756C60.4453 174.874 65.4651 162.658 74.0575 151.07C75.2767 149.425 76.2742 147.934 76.2742 147.755C76.2742 147.576 75.7916 147.23 75.2017 146.986C72.6185 145.916 70.975 142.912 70.9958 139.297C71.0164 135.737 71.6949 134.055 74.1274 131.536C76.0926 129.5 76.2748 129.17 76.2815 127.629C76.2907 125.492 77.1928 118.68 77.9813 114.793C80.0297 104.697 84.5061 93.4841 89.4224 86.1343C92.8795 80.9663 99.2034 74.2529 104.552 70.0738C109.953 65.8526 117.719 61.4683 124.271 58.9409C126.394 58.1219 127.511 57.4066 128.941 55.95C135.853 48.9096 155.779 45.9077 170.624 49.6705C175.103 50.8057 177.621 51.9272 179.95 53.8249C181.296 54.9209 182.919 55.7453 185.35 56.5671C190.331 58.2512 200.044 63.0915 204.875 66.2967L209.019 69.0458L209.244 67.1721C209.368 66.1416 209.47 63.9925 209.472 62.3964C209.474 60.539 209.678 59.1024 210.038 58.4056C210.695 57.1351 211.065 57.0182 221.568 54.7546C227.392 53.4994 256.734 46.9617 272.727 43.3557C274.876 42.8713 278.787 41.934 281.419 41.2729L286.204 40.0709L287.931 40.8031C288.88 41.2058 295.935 45.3627 303.609 50.0406C311.283 54.7185 320.697 60.4218 324.528 62.7145L331.495 66.8831L334.574 67.1092C336.268 67.2335 339.24 67.4456 341.178 67.5805C344.393 67.8043 344.796 67.9188 345.759 68.8819L346.815 69.9379L346.699 79.6077C346.586 89.0193 346.561 89.2996 345.759 90.1015C345.029 90.8303 344.579 90.919 341.852 90.8703C340.157 90.8401 337.807 90.7084 336.63 90.5777L334.491 90.3401V100.75V111.161L335.834 112.185C339.479 114.965 339.433 121.636 335.752 124.019C334.842 124.609 334.499 125.105 334.496 125.838C334.491 126.971 334.705 127.203 337.156 128.721C338.239 129.391 339.284 130.466 339.937 131.58C340.83 133.104 340.985 133.778 340.993 136.167C341.005 139.777 340.168 141.977 338.035 143.943C332.587 148.965 322.535 146.265 320.491 139.232C319.527 135.918 320.719 133.573 323.367 133.573C325.133 133.573 326.306 134.902 326.306 136.902C326.306 139.134 328.199 140.643 330.999 140.643C333.564 140.643 335.235 139.034 335.235 136.563C335.235 134.817 334.879 134.339 332.42 132.786C329.689 131.061 328.538 129.166 328.538 126.396C328.538 124.852 328.418 124.601 327.436 124.093C325.706 123.198 324.272 120.413 324.272 117.946C324.272 115.508 325.653 112.793 327.427 111.745L328.538 111.089V100.62V90.1519L324.228 89.7598C319.396 89.3204 318.333 88.7656 317.9 86.4563C317.619 84.9588 318.062 85.05 307.33 84.2821C302.93 83.9674 298.534 83.6116 297.561 83.4916L295.791 83.2733L295.806 140.594C295.816 176.99 295.953 197.995 296.181 198.136C296.378 198.258 296.54 198.135 296.54 197.864C296.54 197.592 297.963 195.135 299.703 192.402C301.443 189.67 305.88 182.619 309.563 176.733C316.501 165.643 318.063 163.7 320.605 162.994C324.185 162 328.625 163.319 331.068 166.102C332.203 167.394 344.402 191.173 358.917 220.385C366.892 236.436 367.396 237.573 367.541 239.84C367.907 245.598 364.851 249.745 359.492 250.762C358.263 250.995 354.731 251.003 349.66 250.786C345.308 250.599 338.44 250.332 334.398 250.193L327.05 249.941V276.049C327.05 304.512 327.092 303.932 324.961 304.742C324.446 304.937 322.516 305.098 320.672 305.098C317.421 305.098 317.283 305.062 316.17 303.95L315.022 302.801L315.258 276.268L315.494 249.735L314.668 249.53C314.213 249.417 308.918 249.206 302.9 249.061L291.959 248.797L292.202 250.87C292.336 252.011 294.21 261.706 296.367 272.416C298.523 283.126 300.638 293.705 301.067 295.925C301.604 298.704 302.093 300.236 302.635 300.842C303.069 301.326 306.27 303.239 309.748 305.092C313.227 306.946 316.363 308.836 316.717 309.292C318.171 311.167 317.99 314.467 316.333 316.265C315.47 317.2 312.875 318.16 297.842 323.103C271.188 331.868 273.351 331.25 270.123 331.021C266.49 330.763 265.489 330.398 253.46 324.945C247.877 322.414 239.757 318.825 235.415 316.969C226.876 313.321 225.369 312.29 224.897 309.779C224.362 306.922 225.499 304.551 228.021 303.269C228.769 302.889 232.395 301.36 236.078 299.872C239.762 298.383 242.967 296.982 243.201 296.759C243.566 296.412 247.52 285.476 252.47 271.125C253.256 268.845 253.714 266.977 253.525 266.813C253.343 266.653 251.918 266.068 250.36 265.513C248.801 264.957 246.216 263.756 244.615 262.844C243.014 261.932 241.581 261.313 241.431 261.469C241.28 261.624 239.931 263.366 238.432 265.339C230.439 275.858 222.502 283.052 211.634 289.63L208.769 291.364L211.288 293.859C220.026 302.514 218.96 312.957 208.802 318.226C205.454 319.963 202.903 320.532 198.685 320.482C192.976 320.415 188.536 318.556 185.297 314.877C183.356 312.671 182.452 310.122 181.913 305.327C181.551 302.114 181.356 301.379 180.868 301.39C180.538 301.397 178.761 301.65 176.919 301.952C172.798 302.628 157.755 303.033 152.828 302.6C148.9 302.255 148.854 302.279 149.59 304.216C149.805 304.78 150.139 306.493 150.333 308.021C151.219 315.012 148.499 320.289 142.577 323.067C137.777 325.318 130.803 324.811 125.574 321.831C119.98 318.642 117.966 313.426 118.466 303.423C118.6 300.763 118.805 297.83 118.922 296.906L119.135 295.226L114.727 293C112.302 291.775 110.235 290.731 110.133 290.679C110.03 290.628 109.993 293.139 110.049 296.26C110.135 301.092 110.053 302.129 109.491 303.237C108.575 305.043 106.807 305.841 103.714 305.841H101.203V311.702V317.563L102.893 318.459C103.822 318.952 105.454 320.297 106.52 321.447C108.429 323.507 108.504 323.547 111.416 323.999C115.123 324.574 117.796 325.783 119.806 327.793C122.685 330.672 123.875 335.253 122.225 337.109C121.257 338.199 118.45 339.423 115.01 340.256C112.627 340.833 111.414 340.883 105.895 340.628C95.5086 340.149 95.8555 340.118 92.0544 341.837C86.8072 344.209 85.0152 344.593 78.5067 344.74C74.1355 344.838 71.8657 344.71 69.1295 344.211ZM84.8318 339.225C85.7527 338.914 88.2912 337.974 90.4729 337.137L94.4396 335.614L102.937 335.838C111.394 336.06 111.449 336.057 114.49 335.079C116.17 334.538 117.649 333.927 117.777 333.72C118.079 333.23 116.416 331.06 114.786 329.817C113.661 328.959 113.054 328.816 109.756 328.635L106.005 328.428L104.033 326.053C100.474 321.764 98.019 320.526 93.3894 320.684C91.0936 320.763 90.2611 320.973 88.6933 321.868C87.4151 322.599 86.2709 322.957 85.2186 322.957C83.813 322.957 83.383 322.714 81.0897 320.621C79.6818 319.336 77.4329 317.722 76.0921 317.034C73.7639 315.84 73.5164 315.792 70.5835 315.975C67.9516 316.14 67.0864 316.381 64.5303 317.666C60.6764 319.604 57.4785 322.333 55.2169 325.613C53.3543 328.314 52.0892 329.282 50.4214 329.282C48.0587 329.282 43.2387 332.82 42.2437 335.285L41.6981 336.637L44.3824 337.574C48.1839 338.901 55.5032 339.5 62.3216 339.042C65.5637 338.824 67.8818 338.824 68.4607 339.042C71.5201 340.189 81.6387 340.302 84.8318 339.225ZM276.448 323.885C285.277 321.316 306.351 314.677 308.79 313.696C310.136 313.155 311.237 312.548 311.237 312.347C311.237 312.146 308.793 310.737 305.806 309.218L300.376 306.454L297.499 307.838C291.178 310.879 286.375 312.079 279.155 312.418C267.671 312.959 255.148 309.878 246.478 304.38C243.739 302.643 243.045 302.625 239.927 304.209C238.424 304.972 235.816 306.112 234.131 306.743C232.446 307.373 231.042 308.056 231.011 308.26C230.96 308.6 238.485 312.069 258.775 321.063C266.066 324.295 267.877 324.994 269.751 325.3C270.932 325.492 270.908 325.497 276.448 323.885ZM140.69 317.823C145.12 315.509 146.17 310.577 143.648 303.93L142.852 301.831L139.794 301.399C135.81 300.836 129.931 299.433 126.831 298.307L124.367 297.411L124.136 299.859C123.505 306.533 124.176 312.547 125.805 314.836C127.565 317.308 131.288 318.821 135.67 318.847C138.282 318.862 138.97 318.722 140.69 317.823ZM43.9041 311.981V306.214H40.7719C39.0492 306.214 37.3749 306.112 37.0512 305.988C36.5296 305.788 36.4627 306.443 36.4627 311.755V317.748H40.1834H43.9041V311.981ZM95.5288 315.311C95.8685 315.206 95.9939 313.91 95.9939 310.504V305.842H92.0872H88.1804V310.841V315.839L91.6221 315.647C93.515 315.541 95.273 315.39 95.5288 315.311ZM204.484 314.048C208.779 312.538 211.708 309.405 211.707 306.322C211.707 303.213 208.406 298.577 203.985 295.475L202.773 294.625L198.962 296.111C196.866 296.928 193.33 298.153 191.105 298.831L187.06 300.066L187.243 303.605C187.45 307.615 188.193 309.899 189.87 311.688C192.87 314.887 199.191 315.908 204.484 314.048ZM282.039 306.571C285.904 306.098 291.202 304.73 294.045 303.473C296.57 302.356 296.537 302.547 295.266 296.312C294.293 291.543 292.037 281.535 291.897 281.371C291.85 281.316 290.239 281.711 288.316 282.249C285.457 283.049 283.769 283.261 279.053 283.408C273.88 283.57 272.798 283.489 268.563 282.625C264.692 281.835 259.694 280.313 256.327 278.897C255.843 278.694 255.14 280.397 252.318 288.618C250.436 294.101 248.9 298.794 248.905 299.048C248.919 299.731 255.191 302.758 259.551 304.186C267.103 306.66 274.723 307.469 282.039 306.571ZM96.6451 300.313L104.552 300.261V289.843V279.425H64.3679H24.1843V289.998C24.1843 296.678 24.3206 300.617 24.5545 300.695C24.758 300.763 39.2827 300.717 56.8316 300.592C74.3804 300.467 92.2965 300.342 96.6451 300.313ZM322.298 298.647C322.398 297.759 322.513 286.457 322.553 273.532L322.627 250.031H321.304H319.98L319.957 265.565C319.945 274.109 319.851 285.411 319.749 290.68L319.563 300.261H320.839C322.069 300.261 322.123 300.202 322.298 298.647ZM171.206 296.531C177.338 295.924 187.895 293.795 187.895 293.165C187.895 293.027 186.347 292.635 184.454 292.294C161.484 288.155 136.179 275.731 116.136 258.751C114.219 257.127 112.084 255.322 111.392 254.739L110.133 253.68V255.96C110.133 260.241 108.864 261.844 105.108 262.31C103.746 262.479 102.535 262.714 102.416 262.833C102.086 263.163 103.245 264.309 107.714 268.073C121.374 279.575 137.004 288.201 153.851 293.537C157.591 294.721 165.078 296.609 167.113 296.88C167.245 296.898 169.086 296.741 171.206 296.531ZM142.298 295.484C142.104 295.312 140.521 294.619 138.782 293.943C132.348 291.443 123.643 286.668 115.249 281.035L110.133 277.602V280.741V283.88L111.561 284.782C115.829 287.476 125.022 291.61 130.969 293.509C135.744 295.034 143.276 296.347 142.298 295.484ZM205.396 286.215C210.176 283.827 218.397 278.785 218.402 278.238C218.405 277.941 217.042 277.762 210.406 277.191C207.745 276.961 202.136 276.198 197.941 275.495C172.443 271.219 157.505 265.762 139.154 254.017C129.214 247.656 121.431 241.406 110.232 230.794L104.565 225.424L103.628 227.542C103.113 228.707 102.691 229.787 102.691 229.942C102.691 230.098 103.77 230.294 105.089 230.378C109.463 230.656 110.133 231.976 110.133 240.32V246.259L113.76 249.622C122.617 257.834 133.941 265.812 145.851 272.229C161.197 280.498 177.646 285.867 195.151 288.323C199.717 288.963 200.022 288.9 205.396 286.215ZM283.964 277.538C287.235 276.877 290.627 275.66 290.855 275.067C291.037 274.592 288.639 261.946 287.584 257.817L287.244 256.487L284.544 257.188C279.166 258.585 269.309 257.84 265.158 255.725C264.577 255.428 264.062 255.24 264.015 255.306C263.71 255.735 258.217 271.692 258.217 272.149C258.217 273.476 264.115 276.068 270.019 277.335C273.025 277.98 281.189 278.099 283.964 277.538ZM105.296 274.048C105.296 273.767 102.027 271.611 101.601 271.611C101.382 271.611 101.203 272.197 101.203 272.914V274.216H103.249C104.375 274.216 105.296 274.14 105.296 274.048ZM82.598 271.332C82.5963 268.485 82.2299 267.703 79.4581 264.635L77.6935 262.682H63.5893H49.4851V268.263V273.844H66.0423H82.5994L82.598 271.332ZM93.2964 273.514L95.9939 273.472V268.077V262.682H92.0872H88.1804V268.015C88.1804 270.948 88.2808 273.448 88.4034 273.571C88.526 273.693 89.0701 273.74 89.6126 273.675C90.1551 273.61 91.8128 273.537 93.2964 273.514ZM43.9041 268.263V263.054H40.1834H36.4627V268.263V273.472H40.1834H43.9041V268.263ZM226.458 270.402C229.049 267.721 231.865 264.301 235.114 259.891C236.621 257.845 238.041 255.932 238.269 255.639C238.774 254.992 238.831 254.958 233.846 258.271C226.363 263.246 219.391 266.665 211.56 269.204C206.138 270.961 206.138 270.961 212.824 271.587C218.872 272.154 219.797 272.223 222.324 272.293L224.57 272.356L226.458 270.402ZM196.267 267.11C211.343 265.282 230.229 255.771 243.483 243.334C246.393 240.604 247.487 238.589 249.948 231.428C256.075 213.597 256.423 195.586 250.959 179.152C248.376 171.386 244.071 162.982 239.49 156.764L237.798 154.468L236.047 154.995C229.816 156.871 212.29 160.16 200.732 161.623C187.619 163.283 180.1 163.809 168.352 163.889L157.181 163.965L154.4 165.947C144.093 173.288 131.889 184.895 123.693 195.151C119.391 200.534 113.238 209.66 110.172 215.208L107.93 219.266L108.989 220.603C110.938 223.061 122.169 233.803 127.003 237.833C141.106 249.586 158.228 259.143 173.757 263.929C177.775 265.167 184.324 266.889 186.407 267.254C188.25 267.577 192.985 267.508 196.267 267.11ZM186.272 225.428C180.555 224.618 174.492 219.772 174.506 216.024C174.513 214.207 174.771 213.729 175.997 213.267C177.37 212.749 178.275 213.265 179.998 215.548C181.181 217.113 182.131 217.891 183.972 218.797C186.237 219.912 186.586 219.977 189.468 219.819C193.947 219.573 197.013 217.717 198.5 214.353C199.538 212.003 199.649 211.897 201.2 211.781C202.422 211.69 202.821 211.83 203.301 212.515C204.579 214.34 203.475 217.925 200.682 221.016C198.934 222.951 194.841 224.981 192.086 225.281C190.907 225.409 189.607 225.564 189.198 225.626C188.788 225.687 187.472 225.598 186.272 225.428ZM150.13 216.301C146.903 214.605 145.092 211.372 144.816 206.814C144.432 200.474 148.229 194.943 152.945 194.973C160.309 195.02 164.246 206.873 159.144 213.637C156.951 216.545 152.883 217.747 150.13 216.301ZM218.499 211.669C216.569 210.714 215.242 209.196 213.98 206.499C213.172 204.773 213.022 203.928 213.025 201.104C213.028 198.212 213.174 197.438 214.095 195.426C214.682 194.144 215.796 192.523 216.571 191.823C217.785 190.726 219.951 189.76 221.196 189.76C222.465 189.76 224.62 190.738 225.902 191.896C230.825 196.345 231.1 205.852 226.43 210.157C223.896 212.492 221.2 213.006 218.499 211.669ZM257.077 257.938C257.768 255.943 258.813 253.085 259.398 251.587C260.439 248.921 260.481 248.175 259.59 248.167C259.346 248.165 257.484 247.242 255.451 246.116C252.684 244.583 251.678 244.186 251.447 244.538C251.278 244.797 250.36 246.432 249.407 248.171C248.454 249.91 247.016 252.383 246.211 253.665C245.406 254.948 244.84 256.24 244.954 256.536C245.297 257.43 253.631 261.343 255.623 261.545C255.731 261.556 256.385 259.933 257.077 257.938ZM68.4607 257.043C82.8877 256.995 96.9101 256.883 99.6216 256.794L104.552 256.632V246.202V235.772L92.2125 236.018C85.426 236.154 67.3613 236.265 52.0687 236.265C28.8452 236.265 24.2317 236.349 24.068 236.775C23.9602 237.056 23.9671 241.786 24.0833 247.286L24.2946 257.287L33.2622 257.208C38.1943 257.165 54.0337 257.09 68.4607 257.043ZM284.354 251.499C285.438 251.129 285.75 250.826 285.75 250.145C285.75 248.375 281.998 230.61 281.446 229.768C280.878 228.901 279.773 228.317 277.853 227.868C276.29 227.503 273.6 228.965 272.772 230.63C271.659 232.868 266.337 248.86 266.472 249.561C266.631 250.386 267.942 251.014 270.927 251.693C273.77 252.341 282.247 252.218 284.354 251.499ZM359.953 244.842C361.421 243.874 361.995 242.731 362.011 240.743C362.027 238.783 359.305 233.043 342.953 200.546C330.508 175.812 328.391 171.844 326.642 169.977C325.479 168.734 325.091 168.549 323.666 168.556C322.687 168.561 321.698 168.823 321.21 169.207C320.44 169.813 316.809 175.47 301.575 199.802C290.847 216.936 285.942 224.895 285.819 225.364C285.755 225.611 286.045 226.28 286.465 226.853C286.995 227.574 287.674 230.156 288.682 235.276C289.481 239.336 290.29 242.814 290.481 243.005C290.672 243.196 300.694 243.691 312.752 244.106C324.811 244.521 338.277 244.993 342.677 245.156C357.03 245.687 358.718 245.656 359.953 244.842ZM336.826 238.522C327.33 238.232 326.986 238.142 326.48 235.839C326.203 234.577 326.651 233.762 329.34 230.633C330.331 229.48 331.142 228.369 331.142 228.164C331.142 227.959 330.012 227.121 328.631 226.301C325.319 224.334 319.236 221.035 319.236 221.205C319.236 221.279 319.613 221.977 320.073 222.756C320.851 224.072 320.903 224.542 320.803 229.381C320.674 235.594 320.314 237.272 319.006 237.77C317.808 238.225 316.343 237.86 315.878 236.991C315.322 235.952 315.437 234.547 316.408 230.537L317.299 226.855L314.914 223.729C313.573 221.973 312.456 220.815 312.362 221.086C312.271 221.351 311.851 222.949 311.429 224.637C309.988 230.411 308.013 235.227 306.515 236.623C304.943 238.088 302.121 237.234 302.121 235.293C302.121 234.893 302.691 233.483 303.389 232.16C305.493 228.166 308.403 218.901 308.438 216.085C308.443 215.666 307.666 215.046 306.221 214.316C304.998 213.699 303.71 212.756 303.36 212.222C302.62 211.093 302.427 211.507 306.351 205.813C308.717 202.378 309.056 202.047 310.926 201.331C315.966 199.402 319.382 199.465 321.837 201.53C324.355 203.649 325.116 207.117 325.702 219.149C325.738 219.892 326.434 220.53 329.152 222.312C331.024 223.54 333.056 224.836 333.668 225.192L334.779 225.839L336.359 223.747C337.227 222.597 338.251 221.343 338.633 220.961C339.44 220.153 341.853 220.019 342.745 220.731C343.465 221.306 351.234 235.627 351.234 236.38C351.234 236.681 350.938 237.292 350.576 237.739C349.733 238.78 348.179 238.868 336.826 238.522ZM320.91 214.901C320.91 213.18 320.811 211.671 320.689 211.549C320.567 211.426 319.911 212.533 319.231 214.008C318.534 215.52 318.161 216.745 318.377 216.817C318.587 216.887 319.075 217.184 319.462 217.477C320.733 218.439 320.91 218.123 320.91 214.901ZM311.13 209.397C311.89 207.925 312.447 206.655 312.367 206.576C311.929 206.138 310.534 207.133 309.52 208.607C308.53 210.046 308.42 210.424 308.767 211.187C308.991 211.678 309.303 212.079 309.461 212.077C309.619 212.076 310.37 210.87 311.13 209.397ZM321.283 200.445C319.287 199.329 318.007 196.888 318.241 194.643C318.683 190.405 323.656 187.923 327.082 190.232C333.43 194.51 327.944 204.172 321.283 200.445ZM263.348 240.637C263.744 239.562 264.847 236.339 265.799 233.474C266.752 230.609 267.909 227.595 268.37 226.777C269.077 225.523 271.767 223.259 273.083 222.811C273.329 222.727 273.542 198.764 273.711 152.27C273.931 91.6899 273.893 81.8554 273.44 81.8543C273.15 81.8534 270.318 81.6051 267.146 81.3021C257.717 80.4015 217.923 77.3771 217.752 77.5481C217.665 77.6349 218.552 78.8359 219.724 80.2169C226.89 88.6645 232.978 101.841 236.293 116.08C238.128 123.959 237.569 123.062 242.087 125.38C253.333 131.15 257.544 135.188 257.619 140.273C257.657 142.899 256.341 145.255 253.639 147.4C251.762 148.891 246.263 151.805 245.329 151.805C244.229 151.805 244.553 152.78 246.88 156.488C261.472 179.733 264.344 206.919 255.034 233.665L253.68 237.557L254.905 238.58C256.223 239.681 261.468 242.559 262.19 242.578C262.431 242.585 262.952 241.711 263.348 240.637ZM43.9041 227.136V223.587L40.2764 223.694L36.6487 223.8L36.5282 227.242L36.4076 230.684H40.1559H43.9041V227.136ZM80.7063 224.731C90.4699 201.995 102.818 184.636 123.135 165.085C125.646 162.668 127.628 160.619 127.539 160.53C127.45 160.441 125.381 159.952 122.941 159.445C120.501 158.937 118.16 158.422 117.74 158.301C116.738 158.013 112.269 161.897 106.303 168.241C100.766 174.127 97.2964 178.47 92.6793 185.291C86.2754 194.751 81.1292 204.191 76.6753 214.647C74.5986 219.522 71.0652 229.383 71.0652 230.304C71.0652 230.577 72.2397 230.676 74.6475 230.604L78.2297 230.498L80.7063 224.731ZM97.132 227.757C98.8272 223.857 103.543 215.007 106.675 209.848C115.435 195.417 121.517 187.635 132.125 177.284C137.084 172.445 145.804 164.816 147.804 163.567C148.887 162.891 148.548 162.595 146.689 162.593C145.156 162.592 143.071 162.302 137.294 161.284C136.072 161.069 135.774 161.245 132.457 164.146C121.96 173.325 113.295 182.906 103.419 196.253C99.1613 202.008 94.5106 209.626 90.8079 216.912C88.0528 222.333 84.8318 229.635 84.8318 230.459C84.8318 230.556 87.3215 230.627 90.3646 230.616L95.8973 230.598L97.132 227.757ZM71.0718 212.638C74.7833 203.612 80.8848 192.339 87.1821 182.873C92.5908 174.742 96.468 169.936 102.969 163.304L109.387 156.757L103.418 155.296L97.4486 153.835L94.5571 156.819C88.6482 162.919 79.2334 174.916 74.7951 182.003C71.7271 186.901 66.8341 196.586 64.8147 201.759C63.5135 205.091 63.2517 206.194 63.2517 208.344C63.2517 211.27 64.1266 218.422 64.9603 222.312C65.2673 223.745 65.6026 225.313 65.7053 225.797C65.8417 226.44 66.3222 225.437 67.4874 222.076C68.3649 219.546 69.9778 215.299 71.0718 212.638ZM285.874 214.588L290.65 206.685L290.607 197.569L290.565 188.454L284.809 182.688L279.053 176.922L278.99 195.711C278.895 224.111 278.825 222.03 279.89 222.236C280.35 222.324 280.811 222.418 280.913 222.444C281.015 222.47 283.248 218.935 285.874 214.588ZM71.0449 176.733C74.5207 171.578 82.5386 161.5 88.2717 155.079L90.8297 152.215L86.8076 150.938C83.9572 150.034 82.5933 149.762 82.126 150.007C80.5455 150.833 75.0638 159.024 71.7557 165.501C68.6766 171.53 65.1884 181.631 64.5357 186.407C64.3198 187.987 64.4513 187.829 66.8606 183.617C68.2652 181.161 70.1481 178.064 71.0449 176.733ZM290.759 171.804C290.921 165.06 290.879 161.479 290.638 161.479C290.267 161.479 281.568 170.525 281.359 171.128C281.298 171.306 282.489 172.933 284.007 174.743C287.356 178.737 290.381 182.221 290.456 182.168C290.486 182.146 290.622 177.482 290.759 171.804ZM287.615 155.552C287.028 154.821 284.861 152.552 282.8 150.509L279.053 146.796V156.643V166.491L283.868 161.686L288.684 156.881L287.615 155.552ZM185.663 157.025C197.708 155.982 208.179 154.493 219.964 152.144C238.222 148.507 248.639 144.91 251.157 141.373C251.901 140.328 251.907 140.231 251.311 138.974C250.597 137.469 248.371 135.514 244.636 133.11C241.605 131.16 236.149 128.364 235.374 128.364C235.08 128.364 233.278 128.96 231.369 129.689C208.802 138.301 166.587 143.521 130.596 142.15C113.227 141.488 100.483 140.083 86.1885 137.253L78.4294 135.718L77.6309 136.516C76.394 137.753 76.5119 140.432 77.854 141.586C80.1617 143.571 95.708 147.588 118.69 152.139C132.323 154.838 141.078 156.188 151.618 157.214C157.614 157.798 178.041 157.685 185.663 157.025ZM290.78 142.503C290.784 137.182 290.671 132.829 290.529 132.829C290.232 132.829 281.902 141.623 281.728 142.121C281.665 142.301 283.549 144.479 285.914 146.961C288.279 149.443 290.215 151.632 290.215 151.825C290.215 152.019 290.34 152.177 290.494 152.177C290.647 152.177 290.776 147.824 290.78 142.503ZM283.959 132.55L288.295 128.178L283.953 123.282C281.565 120.588 279.485 118.37 279.332 118.352C279.178 118.333 279.053 122.504 279.053 127.62C279.053 132.736 279.181 136.922 279.337 136.922C279.494 136.922 281.574 134.955 283.959 132.55ZM156.714 136.147C160.869 135.925 164.335 135.678 164.415 135.597C164.68 135.333 163.691 115.279 163.114 109.203C161.434 91.5295 157.279 80.1609 149.507 71.9771C143.491 65.6428 136.737 62.7105 130.394 63.6791C127.02 64.194 123.771 65.3623 119.062 67.753C108.293 73.2208 100.241 80.2969 93.7353 90.01C87.9211 98.6913 83.4283 112.152 82.1985 124.575C81.6697 129.918 81.6887 129.962 84.8647 130.787C87.9009 131.576 101.377 133.84 107.9 134.657C112.9 135.283 121.09 135.956 127.992 136.308C133.634 136.595 150.03 136.503 156.714 136.147ZM183.638 134.125C186.287 133.817 191.676 133.041 195.616 132.401L202.778 131.238L202.775 128.964C202.77 126.112 201.883 118.061 200.915 112.085C198.439 96.807 194.572 84.6411 189.226 75.3077C184.26 66.638 179.255 60.4504 175.366 58.1713C170.74 55.4606 164.643 54.2033 156.083 54.195C149.634 54.1887 145.937 54.643 141.014 56.047C136.499 57.3347 136.501 57.3329 138.886 57.8956C147.911 60.0247 156.332 68.0328 161.846 79.7297C167.272 91.241 169.274 102.013 170.043 123.848C170.248 129.651 170.522 134.572 170.652 134.783C170.933 135.237 176.501 134.955 183.638 134.125ZM216.698 128.31C221.722 127.059 227.419 125.298 230.032 124.187C231.214 123.685 231.8 123.212 231.8 122.762C231.8 119.177 226.866 103.575 223.797 97.4555C218.066 86.0262 209.192 75.8441 199.404 69.4636C196.205 67.3786 189.391 63.8649 189.104 64.1522C189.019 64.2365 189.976 65.8306 191.229 67.6945C197.14 76.4859 201.384 86.7914 204.414 99.7149C205.841 105.798 207.523 116.459 208.025 122.597C208.621 129.871 208.665 129.988 210.688 129.665C211.556 129.527 214.26 128.917 216.698 128.31ZM290.681 114.165C290.63 109.015 290.535 104.748 290.47 104.684C290.406 104.619 288.317 106.602 285.828 109.09L281.304 113.614L282.55 115.129C284.377 117.351 290.244 123.527 290.529 123.528C290.663 123.528 290.731 119.314 290.681 114.165ZM283.827 104.428L288.043 100.226L284.341 95.5988C282.304 93.0536 280.281 90.6523 279.845 90.2625L279.053 89.5537V99.0991C279.053 104.349 279.178 108.641 279.332 108.637C279.485 108.632 281.508 106.738 283.827 104.428ZM290.461 84.5822C290.381 84.502 288.292 84.4835 285.819 84.5412L281.323 84.6461L285.862 90.2965L290.401 95.9469L290.504 90.3374C290.56 87.2523 290.541 84.6624 290.461 84.5822ZM341.188 79.251V73.2979L340.165 73.29C339.602 73.2856 335.542 73.038 331.142 72.7398C326.743 72.4416 323.017 72.194 322.864 72.1897C322.71 72.1853 322.585 74.9443 322.585 78.3209V84.46L324.166 84.509C325.036 84.5359 327.673 84.6744 330.026 84.8167C332.38 84.959 335.854 85.1045 337.747 85.1398L341.188 85.2042V79.251ZM317.923 76.4789C318.068 74.545 318.091 72.8087 317.975 72.6206C317.859 72.4324 315.891 72.1571 313.601 72.0087C311.312 71.8603 309.257 71.6691 309.035 71.5838C308.509 71.3823 301.479 77.9626 301.829 78.3279C302.051 78.5588 313.374 79.7952 316.68 79.9495C317.654 79.995 317.661 79.9772 317.923 76.4789ZM290.587 74.4621V70.0452L288.819 69.8266C287.847 69.7064 285.252 69.4946 283.052 69.3558L279.053 69.1036V73.7858V78.468L281.006 78.6047C282.08 78.6798 284.675 78.7723 286.773 78.8102L290.587 78.879V74.4621ZM299.499 73.763L302.636 70.8795L300.611 70.6372C299.497 70.504 297.981 70.3784 297.242 70.3582L295.897 70.3214L295.827 73.484C295.789 75.2234 295.894 76.6466 296.06 76.6466C296.226 76.6466 297.774 75.349 299.499 73.763ZM273.844 74.0165V71.7585L271.573 73.7336C269.436 75.5925 269.353 75.7231 270.177 75.9545C270.659 76.0897 271.681 76.217 272.448 76.2374L273.844 76.2745V74.0165ZM258.259 73.577C257.649 72.7073 256.241 70.9929 255.13 69.7672L253.11 67.5387L251.106 69.2566C247.131 72.6629 245.756 73.9713 245.945 74.167C246.145 74.3732 253.929 75.0105 257.397 75.1047L259.369 75.1583L258.259 73.577ZM270.495 68.2948C270.495 67.9712 268.838 67.7086 264.855 67.401C261.754 67.1615 259.154 67.0279 259.077 67.1042C259.001 67.1805 260.123 68.7752 261.57 70.6478L264.201 74.0527L267.348 71.4028C269.079 69.9454 270.495 68.5468 270.495 68.2948ZM234.673 73.1303C234.82 73.0235 229.094 66.7991 228.552 66.4756C228.182 66.2548 227.101 67.016 224.825 69.1C223.062 70.7144 221.608 72.1938 221.594 72.3876C221.549 72.9919 233.902 73.6934 234.673 73.1303ZM244.128 69.3912L247.613 66.4146L245.008 66.1838C243.576 66.0569 240.394 65.8303 237.939 65.6803L233.474 65.4074L234.243 66.2831C234.666 66.7647 236.078 68.3791 237.38 69.8707C238.682 71.3622 239.949 72.5342 240.196 72.4751C240.442 72.4161 242.212 71.0283 244.128 69.3912ZM219.301 67.9958C221.469 66.2052 223.242 64.587 223.242 64.3999C223.242 64.2128 221.944 63.9578 220.358 63.8333C218.772 63.7088 216.68 63.5213 215.708 63.4166L213.94 63.2264V67.27C213.94 69.4939 214.047 71.4205 214.178 71.5512C214.519 71.8928 214.922 71.6135 219.301 67.9958ZM319.608 66.2194C319.608 66.0097 319.228 65.6937 318.764 65.5171C318.3 65.3406 316.332 64.1971 314.392 62.9761C308.48 59.2552 292.373 49.4337 291.862 49.2377C291.489 49.0945 291.458 49.3295 291.725 50.2926C291.913 50.9742 292.671 54.3781 293.41 57.857C294.148 61.3359 294.861 64.2961 294.995 64.4354C295.128 64.5747 299.926 65.0413 305.656 65.4723C311.385 65.9034 316.325 66.3142 316.632 66.3852C317.877 66.6734 319.608 66.5769 319.608 66.2194ZM289.098 63.794C289.098 63.2985 286.464 52.1056 285.994 50.6016L285.47 48.9273L284.52 52.0899C283.136 56.6987 281.657 62.3336 281.657 63.0008C281.657 63.3952 282.101 63.6256 283.052 63.7251C285.367 63.9672 289.098 64.0097 289.098 63.794ZM276.809 59.4383C277.289 57.5454 278.306 54.0293 279.067 51.6248C279.829 49.2203 280.347 47.2561 280.218 47.26C280.088 47.2638 275.546 48.263 270.123 49.4803C264.7 50.6977 252.938 53.3249 243.985 55.3187C235.032 57.3125 227.707 59.076 227.707 59.2375C227.707 59.3991 229.004 59.5298 230.59 59.528C233.203 59.5251 237.721 59.8636 264.914 62.1003C269.518 62.479 273.882 62.8094 274.611 62.8344L275.936 62.88L276.809 59.4383Z" fill="#7F4C50"/>
<circle cx="140.043" cy="226.541" r="8.23784" fill="#F39991"/>
<circle cx="238.897" cy="224.481" r="8.23784" fill="#F39991"/>
</svg>
