<svg width="300" height="300" viewBox="0 0 300 300" fill="none" xmlns="http://www.w3.org/2000/svg">
<g clip-path="url(#clip0_25_31)">
<path fill-rule="evenodd" clip-rule="evenodd" d="M196.46 251.238C193.418 253.061 187.528 256.055 183.369 257.89C176.851 260.767 175.116 261.249 170.774 261.39C160.599 261.719 140.127 257.68 121.384 251.645C107.366 247.131 102.363 245.049 93.9824 240.241C77.2717 230.654 61.641 217.592 54.3187 207.096L51.0802 202.454L52.9608 195.473C53.9951 191.633 54.9326 188.377 55.044 188.236C55.1554 188.096 58.8097 191.678 63.1646 196.197C85.4351 219.307 111.31 234.234 142.04 241.699C158.547 245.709 175.67 247.885 190.91 247.905L201.991 247.921L196.46 251.238Z" fill="#86F0E3"/>
<path fill-rule="evenodd" clip-rule="evenodd" d="M222.205 229.494C214.984 237.942 212.99 239.455 208.451 239.929C201.833 240.62 196.141 240.79 188.9 240.515L181.851 240.246L189.571 237.861C201.781 234.09 215.625 226.708 228.34 217.189C231.017 215.185 233.208 213.738 233.208 213.973C233.208 215.055 226.7 224.235 222.205 229.494Z" fill="#86F0E3"/>
<path fill-rule="evenodd" clip-rule="evenodd" d="M292.526 159.017C292.538 163.97 290.779 168.002 287.855 169.727C284.011 171.996 280.461 171.888 275.676 169.357C271.927 167.374 270.182 162.064 271.473 156.563C272.753 151.105 278.042 146.947 283.705 146.947C288.869 146.947 292.51 151.928 292.526 159.017Z" fill="#86F0E3"/>
<path fill-rule="evenodd" clip-rule="evenodd" d="M35.4773 169.608C32.2479 179.749 29.9368 185.241 28.3379 186.574C27.8475 186.983 26.3002 187.804 24.8994 188.397C21.5512 189.816 21.4473 189.47 22.374 179.989C23.8787 164.593 27.891 146.114 33.5109 128.698C38.2784 113.924 43.8225 102.789 53.6577 88.2353C59.6235 79.4075 59.6692 79.3752 65.5368 79.8312C71.5402 80.2978 78.8859 81.8057 78.6454 82.5221C78.5473 82.8142 76.5035 85.4056 74.1035 88.2807C71.7035 91.1558 67.8483 96.1844 65.5364 99.4553C60.5775 106.471 49.8305 128.345 46.2519 138.707C44.8822 142.672 42.611 149.007 41.2048 152.784C39.7986 156.561 37.2212 164.131 35.4773 169.608Z" fill="#86F0E3"/>
<path fill-rule="evenodd" clip-rule="evenodd" d="M174.253 60.0812L171.339 60.5063C169.736 60.74 166.461 61.1138 164.061 61.3369L159.697 61.7424L153.32 56.2099C138.047 42.9609 125.367 35.6303 111.026 31.7604L108.677 31.1263L112.369 30.3199C118.081 29.0726 125.653 28.1949 130.904 28.1716C134.973 28.1535 136.259 28.4653 139.631 30.2865C150.492 36.153 161.603 45.1378 169.424 54.376L174.253 60.0812Z" fill="#86F0E3"/>
<path fill-rule="evenodd" clip-rule="evenodd" d="M104.247 286.618C103.472 287.625 101.391 289.2 99.6218 290.117C93.6977 293.187 83.9745 292.867 76.951 289.369C71.3681 286.588 68.7329 281.962 68.7329 274.939C68.7329 270.488 70.0881 260.791 70.6647 261.116C76.4164 264.36 87.7459 269.281 94.9337 271.658C103.647 274.54 104.243 274.85 104.928 276.859C106.119 280.354 105.825 284.565 104.247 286.618Z" fill="#86F0E3"/>
<path fill-rule="evenodd" clip-rule="evenodd" d="M164.733 32.7459C180.302 36.8127 199.182 47.3034 211.39 58.6707C213.605 60.7337 215.116 62.3956 214.746 62.3638C214.377 62.332 212.262 61.8767 210.047 61.3519C207.832 60.8272 200.732 60.2048 194.271 59.9687L182.523 59.5396L179.554 55.5404C174.218 48.3528 160.613 35.2278 154.239 31.1186C152.467 29.9763 156.559 30.6109 164.733 32.7459Z" fill="#84DCF2"/>
<path fill-rule="evenodd" clip-rule="evenodd" d="M41.1253 208.312C37.5303 215.781 30.6224 223.247 24.7612 225.998C21.97 227.309 16.3776 227.636 14.02 226.628C13.2815 226.312 11.6613 224.967 10.4196 223.64C7.05668 220.045 6.81606 216.263 9.58436 210.511C12.1895 205.098 16.8765 200.585 24.1499 196.485C35.0559 190.338 36.2827 188.639 41.8514 171.976C50.6219 145.732 61.8896 127.031 80.1016 108.493C89.9954 98.4212 96.0875 93.5508 107.797 86.3512C120.591 78.4845 132.615 74.332 152.984 70.7462C158.425 69.7885 162.908 69.07 166.956 68.5482C175.824 67.4052 182.607 67.2061 192.801 67.5034C206.272 67.8962 210.866 68.5852 219.991 71.5813C224.168 72.9527 224.871 73.4723 228.098 77.5691C231.892 82.3874 237.996 91.4631 237.668 91.7987C237.558 91.911 235.981 91.2767 234.163 90.389C230.07 88.3902 221.542 85.5073 215.753 84.165C188.174 77.7706 146.089 83.7508 117.357 98.1469C106.053 103.811 97.8717 109.626 89.3223 118.072C76.9885 130.257 66.6408 144.688 58.5167 161.035C52.7824 172.573 50.8471 177.634 46.5726 192.27C44.6425 198.878 42.1912 206.097 41.1253 208.312Z" fill="#84DCF2"/>
<path fill-rule="evenodd" clip-rule="evenodd" d="M149.145 63.858C148.264 63.858 143.237 64.9395 137.974 66.2614C132.711 67.5833 128.196 68.651 127.94 68.6342C127.684 68.6174 125.835 67.3769 123.832 65.8774C119.118 62.3479 104.717 54.9003 98.2714 52.6584C90.749 50.0418 82.6055 48.5619 75.2817 48.4804C71.6835 48.4404 68.738 48.2411 68.7363 48.0377C68.7306 47.3823 75.5957 43.4065 82.4952 40.0694C86.9627 37.9086 90.3826 36.7222 92.7183 36.5227C99.5073 35.943 115.847 39.852 123.782 43.9543C130.966 47.6685 149.83 61.2619 150.523 63.2246C150.646 63.573 150.026 63.858 149.145 63.858Z" fill="#84DCF2"/>
<path fill-rule="evenodd" clip-rule="evenodd" d="M116.082 73.4631C114.045 74.3088 109.624 76.6653 106.259 78.6996C102.893 80.734 99.7944 82.3755 99.373 82.3475C98.9517 82.3194 95.5861 80.939 91.8938 79.28C88.2015 77.621 81.8574 75.4068 77.7959 74.3595C71.0701 72.6253 69.3933 72.4623 58.9988 72.5326C52.7219 72.575 46.076 72.9326 44.2302 73.3273C42.3843 73.722 40.749 73.917 40.5962 73.7607C40.4434 73.6044 43.7662 69.9688 47.9803 65.6817C56.97 56.536 57.3144 56.385 70.4113 55.8451C77.6887 55.5451 80.3022 55.7309 86.1429 56.9636C96.4729 59.1438 111.015 65.3067 117.657 70.3193L119.786 71.9255L116.082 73.4631Z" fill="#84DCF2"/>
<path fill-rule="evenodd" clip-rule="evenodd" d="M87.7903 91.6688C85.3913 93.5571 80.3164 98.1923 76.5128 101.969C72.7092 105.746 68.1673 110.535 66.4197 112.613C62.7175 117.013 62.9475 116.42 68.0165 108.493C72.9468 100.782 79.6853 92.2326 83.8517 88.4009L87.216 85.3068L89.7227 86.3295C91.1014 86.892 92.212 87.5509 92.1908 87.7938C92.1696 88.0366 90.1894 89.7804 87.7903 91.6688Z" fill="#84DCF2"/>
<path fill-rule="evenodd" clip-rule="evenodd" d="M26.8524 125.904C22.7744 138.249 17.041 163.029 17.041 168.31C17.041 169.401 16.7789 170.294 16.4585 170.294C16.1382 170.294 15.505 165.427 15.0514 159.479C13.2926 136.414 17.2612 117.14 28.4373 94.4701L33.4884 84.2243L37.1807 82.9354C40.7224 81.6991 50.0784 79.6016 50.4509 79.9604C50.5496 80.0554 48.4916 83.3467 45.8776 87.2743C36.559 101.276 31.7887 110.962 26.8524 125.904Z" fill="#84DCF2"/>
<path fill-rule="evenodd" clip-rule="evenodd" d="M146.942 265.729C154.694 266.917 154.952 267.233 148.956 268.204C140.728 269.537 124.807 269.311 116.061 267.738C95.4125 264.023 80.7639 257.895 66.1998 246.877C60.5106 242.573 50.2419 232.516 45.2234 226.333L41.3817 221.599L44.7429 216.28L48.1041 210.961L51.5274 215.177C56.1015 220.809 59.3509 224.067 65.3764 229.062C75.2479 237.244 88.3837 245.815 98.428 250.627C110.004 256.172 134.651 263.844 146.942 265.729Z" fill="#84DCF2"/>
<path fill-rule="evenodd" clip-rule="evenodd" d="M207.695 274.761C207.698 277.35 202.92 281.991 197.628 284.537C193.939 286.312 192.33 286.666 187.222 286.826C180.19 287.046 175.952 286.031 172.43 283.282C169.94 281.34 165.895 275.568 166.253 274.469C166.359 274.143 169.459 272.858 173.142 271.615C176.824 270.372 182.261 268.274 185.224 266.955C190.333 264.679 190.834 264.586 194.936 265.16C202.727 266.25 207.688 269.983 207.695 274.761Z" fill="#84DCF2"/>
<path fill-rule="evenodd" clip-rule="evenodd" d="M205.499 223.5C193.73 229.856 182.895 233.495 168.751 235.841C165.249 236.422 160.268 236.878 157.684 236.852C146.219 236.742 119.726 228.156 104.533 219.626C91.548 212.337 74.4526 198.435 63.5953 186.336L57.8282 179.91L58.6979 177.677C61.2343 171.166 70.112 154.063 74.1537 147.901C83.0545 134.331 94.8788 121.294 104.995 113.898C112.049 108.74 127.515 100.91 136.59 97.902C144.759 95.1946 162.927 90.9202 170.187 89.9977C198.186 86.4398 224.18 90.8398 240.084 101.829C242.662 103.61 243.575 104.814 244.875 108.149C253.566 130.439 253.804 160.075 245.503 186.377C243.42 192.976 242.721 194.329 239.682 197.641C231.623 206.423 217.906 216.801 205.499 223.5ZM157.305 179.304C152.957 177.564 150.206 175.313 147.204 171.041C144.407 167.059 143.896 164.238 145.648 162.446C147.163 160.896 148.514 161.111 150.182 163.167C157.233 171.86 159.876 173.416 166.724 172.91C171.483 172.558 173.583 170.914 177.082 164.801C179.567 160.46 181.963 159.485 183.747 162.089C184.617 163.361 184.639 164.003 183.895 166.533C182.154 172.447 177.15 177.806 171.514 179.791C168.143 180.978 160.863 180.728 157.305 179.304ZM113.41 166.715C108.062 163.536 105.596 154.996 107.824 147.37C109.005 143.329 113.439 138.991 117.023 138.371C121.399 137.615 125.53 140.076 128.014 144.917C129.735 148.27 129.911 149.205 129.688 153.814C129.536 156.965 128.957 159.978 128.195 161.578C125.381 167.483 118.642 169.825 113.41 166.715ZM203.282 164.513C197.939 162.134 194.693 154.3 196.198 147.42C197.732 140.409 201.787 136.647 207.811 136.647C214.473 136.647 218.781 142.977 218.331 152.104C218.028 158.236 215.809 162.158 211.513 164.153C208.214 165.685 206.118 165.777 203.282 164.513Z" fill="#84DCF2"/>
<path fill-rule="evenodd" clip-rule="evenodd" d="M196.46 251.238C193.418 253.061 187.528 256.055 183.369 257.89C176.851 260.767 175.116 261.249 170.774 261.39C160.599 261.719 140.127 257.68 121.384 251.645C107.366 247.131 102.363 245.049 93.9824 240.241C77.2717 230.654 61.641 217.592 54.3187 207.096L51.0802 202.454L52.9608 195.473C53.9951 191.633 54.9326 188.377 55.044 188.236C55.1554 188.096 58.8097 191.678 63.1646 196.197C85.4351 219.307 111.31 234.234 142.04 241.699C158.547 245.709 175.67 247.885 190.91 247.905L201.991 247.921L196.46 251.238Z" fill="#86F0E3"/>
<path fill-rule="evenodd" clip-rule="evenodd" d="M222.205 229.494C214.984 237.942 212.99 239.455 208.451 239.929C201.833 240.62 196.141 240.79 188.9 240.515L181.851 240.246L189.571 237.861C201.781 234.09 215.625 226.708 228.34 217.189C231.017 215.185 233.208 213.738 233.208 213.973C233.208 215.055 226.7 224.235 222.205 229.494Z" fill="#86F0E3"/>
<path fill-rule="evenodd" clip-rule="evenodd" d="M292.526 159.017C292.538 163.97 290.779 168.002 287.855 169.727C284.011 171.996 280.461 171.888 275.676 169.357C271.927 167.374 270.182 162.064 271.473 156.563C272.753 151.105 278.042 146.947 283.705 146.947C288.869 146.947 292.51 151.928 292.526 159.017Z" fill="#86F0E3"/>
<path fill-rule="evenodd" clip-rule="evenodd" d="M35.4773 169.608C32.2479 179.749 29.9368 185.241 28.3379 186.574C27.8475 186.983 26.3002 187.804 24.8994 188.397C21.5512 189.816 21.4473 189.47 22.374 179.989C23.8787 164.593 27.891 146.114 33.5109 128.698C38.2784 113.924 43.8225 102.789 53.6577 88.2353C59.6235 79.4075 59.6692 79.3752 65.5368 79.8312C71.5402 80.2978 78.8859 81.8057 78.6454 82.5221C78.5473 82.8142 76.5035 85.4056 74.1035 88.2807C71.7035 91.1558 67.8483 96.1844 65.5364 99.4553C60.5775 106.471 49.8305 128.345 46.2519 138.707C44.8822 142.672 42.611 149.007 41.2048 152.784C39.7986 156.561 37.2212 164.131 35.4773 169.608Z" fill="#86F0E3"/>
<path fill-rule="evenodd" clip-rule="evenodd" d="M174.253 60.0812L171.339 60.5063C169.736 60.74 166.461 61.1138 164.061 61.3369L159.697 61.7424L153.32 56.2099C138.047 42.9609 125.367 35.6303 111.026 31.7604L108.677 31.1263L112.369 30.3199C118.081 29.0726 125.653 28.1949 130.904 28.1716C134.973 28.1535 136.259 28.4653 139.631 30.2865C150.492 36.153 161.603 45.1378 169.424 54.376L174.253 60.0812Z" fill="#86F0E3"/>
<path fill-rule="evenodd" clip-rule="evenodd" d="M104.247 286.618C103.472 287.625 101.391 289.2 99.6218 290.117C93.6977 293.187 83.9745 292.867 76.951 289.369C71.3681 286.588 68.7329 281.962 68.7329 274.939C68.7329 270.488 70.0881 260.791 70.6647 261.116C76.4164 264.36 87.7459 269.281 94.9337 271.658C103.647 274.54 104.243 274.85 104.928 276.859C106.119 280.354 105.825 284.565 104.247 286.618Z" fill="#86F0E3"/>
<path fill-rule="evenodd" clip-rule="evenodd" d="M164.733 32.7459C180.302 36.8127 199.182 47.3034 211.39 58.6707C213.605 60.7337 215.116 62.3956 214.746 62.3638C214.377 62.332 212.262 61.8767 210.047 61.3519C207.832 60.8272 200.732 60.2048 194.271 59.9687L182.523 59.5396L179.554 55.5404C174.218 48.3528 160.613 35.2278 154.239 31.1186C152.467 29.9763 156.559 30.6109 164.733 32.7459Z" fill="#84DCF2"/>
<path fill-rule="evenodd" clip-rule="evenodd" d="M41.1253 208.312C37.5303 215.781 30.6224 223.247 24.7612 225.998C21.97 227.309 16.3776 227.636 14.02 226.628C13.2815 226.312 11.6613 224.967 10.4196 223.64C7.05668 220.045 6.81606 216.263 9.58436 210.511C12.1895 205.098 16.8765 200.585 24.1499 196.485C35.0559 190.338 36.2827 188.639 41.8514 171.976C50.6219 145.732 61.8896 127.031 80.1016 108.493C89.9954 98.4212 96.0875 93.5508 107.797 86.3512C120.591 78.4845 132.615 74.332 152.984 70.7462C158.425 69.7885 162.908 69.07 166.956 68.5482C175.824 67.4052 182.607 67.2061 192.801 67.5034C206.272 67.8962 210.866 68.5852 219.991 71.5813C224.168 72.9527 224.871 73.4723 228.098 77.5691C231.892 82.3874 237.996 91.4631 237.668 91.7987C237.558 91.911 235.981 91.2767 234.163 90.389C230.07 88.3902 221.542 85.5073 215.753 84.165C188.174 77.7706 146.089 83.7508 117.357 98.1469C106.053 103.811 97.8717 109.626 89.3223 118.072C76.9885 130.257 66.6408 144.688 58.5167 161.035C52.7824 172.573 50.8471 177.634 46.5726 192.27C44.6425 198.878 42.1912 206.097 41.1253 208.312Z" fill="#84DCF2"/>
<path fill-rule="evenodd" clip-rule="evenodd" d="M149.145 63.858C148.264 63.858 143.237 64.9395 137.974 66.2614C132.711 67.5833 128.196 68.651 127.94 68.6342C127.684 68.6174 125.835 67.3769 123.832 65.8774C119.118 62.3479 104.717 54.9003 98.2714 52.6584C90.749 50.0418 82.6055 48.5619 75.2817 48.4804C71.6835 48.4404 68.738 48.2411 68.7363 48.0377C68.7306 47.3823 75.5957 43.4065 82.4952 40.0694C86.9627 37.9086 90.3826 36.7222 92.7183 36.5227C99.5073 35.943 115.847 39.852 123.782 43.9543C130.966 47.6685 149.83 61.2619 150.523 63.2246C150.646 63.573 150.026 63.858 149.145 63.858Z" fill="#84DCF2"/>
<path fill-rule="evenodd" clip-rule="evenodd" d="M116.082 73.4631C114.045 74.3088 109.624 76.6653 106.259 78.6996C102.893 80.734 99.7944 82.3755 99.373 82.3475C98.9517 82.3194 95.5861 80.939 91.8938 79.28C88.2015 77.621 81.8574 75.4068 77.7959 74.3595C71.0701 72.6253 69.3933 72.4623 58.9988 72.5326C52.7219 72.575 46.076 72.9326 44.2302 73.3273C42.3843 73.722 40.749 73.917 40.5962 73.7607C40.4434 73.6044 43.7662 69.9688 47.9803 65.6817C56.97 56.536 57.3144 56.385 70.4113 55.8451C77.6887 55.5451 80.3022 55.7309 86.1429 56.9636C96.4729 59.1438 111.015 65.3067 117.657 70.3193L119.786 71.9255L116.082 73.4631Z" fill="#84DCF2"/>
<path fill-rule="evenodd" clip-rule="evenodd" d="M87.7903 91.6688C85.3913 93.5571 80.3164 98.1923 76.5128 101.969C72.7092 105.746 68.1673 110.535 66.4197 112.613C62.7175 117.013 62.9475 116.42 68.0165 108.493C72.9468 100.782 79.6853 92.2326 83.8517 88.4009L87.216 85.3068L89.7227 86.3295C91.1014 86.892 92.212 87.5509 92.1908 87.7938C92.1696 88.0366 90.1894 89.7804 87.7903 91.6688Z" fill="#84DCF2"/>
<path fill-rule="evenodd" clip-rule="evenodd" d="M26.8524 125.904C22.7744 138.249 17.041 163.029 17.041 168.31C17.041 169.401 16.7789 170.294 16.4585 170.294C16.1382 170.294 15.505 165.427 15.0514 159.479C13.2926 136.414 17.2612 117.14 28.4373 94.4701L33.4884 84.2243L37.1807 82.9354C40.7224 81.6991 50.0784 79.6016 50.4509 79.9604C50.5496 80.0554 48.4916 83.3467 45.8776 87.2743C36.559 101.276 31.7887 110.962 26.8524 125.904Z" fill="#84DCF2"/>
<path fill-rule="evenodd" clip-rule="evenodd" d="M146.942 265.729C154.694 266.917 154.952 267.233 148.956 268.204C140.728 269.537 124.807 269.311 116.061 267.738C95.4125 264.023 80.7639 257.895 66.1998 246.877C60.5106 242.573 50.2419 232.516 45.2234 226.333L41.3817 221.599L44.7429 216.28L48.1041 210.961L51.5274 215.177C56.1015 220.809 59.3509 224.067 65.3764 229.062C75.2479 237.244 88.3837 245.815 98.428 250.627C110.004 256.172 134.651 263.844 146.942 265.729Z" fill="#84DCF2"/>
<path fill-rule="evenodd" clip-rule="evenodd" d="M207.695 274.761C207.698 277.35 202.92 281.991 197.628 284.537C193.939 286.312 192.33 286.666 187.222 286.826C180.19 287.046 175.952 286.031 172.43 283.282C169.94 281.34 165.895 275.568 166.253 274.469C166.359 274.143 169.459 272.858 173.142 271.615C176.824 270.372 182.261 268.274 185.224 266.955C190.333 264.679 190.834 264.586 194.936 265.16C202.727 266.25 207.688 269.983 207.695 274.761Z" fill="#84DCF2"/>
<path fill-rule="evenodd" clip-rule="evenodd" d="M205.499 223.5C193.73 229.856 182.895 233.495 168.751 235.841C165.249 236.422 160.268 236.878 157.684 236.852C146.219 236.742 119.726 228.156 104.533 219.626C91.548 212.337 74.4526 198.435 63.5953 186.336L57.8282 179.91L58.6979 177.677C61.2343 171.166 70.112 154.063 74.1537 147.901C83.0545 134.331 94.8788 121.294 104.995 113.898C112.049 108.74 127.515 100.91 136.59 97.902C144.759 95.1946 162.927 90.9202 170.187 89.9977C198.186 86.4398 224.18 90.8398 240.084 101.829C242.662 103.61 243.575 104.814 244.875 108.149C253.566 130.439 253.804 160.075 245.503 186.377C243.42 192.976 242.721 194.329 239.682 197.641C231.623 206.423 217.906 216.801 205.499 223.5ZM157.305 179.304C152.957 177.564 150.206 175.313 147.204 171.041C144.407 167.059 143.896 164.238 145.648 162.446C147.163 160.896 148.514 161.111 150.182 163.167C157.233 171.86 159.876 173.416 166.724 172.91C171.483 172.558 173.583 170.914 177.082 164.801C179.567 160.46 181.963 159.485 183.747 162.089C184.617 163.361 184.639 164.003 183.895 166.533C182.154 172.447 177.15 177.806 171.514 179.791C168.143 180.978 160.863 180.728 157.305 179.304ZM113.41 166.715C108.062 163.536 105.596 154.996 107.824 147.37C109.005 143.329 113.439 138.991 117.023 138.371C121.399 137.615 125.53 140.076 128.014 144.917C129.735 148.27 129.911 149.205 129.688 153.814C129.536 156.965 128.957 159.978 128.195 161.578C125.381 167.483 118.642 169.825 113.41 166.715ZM203.282 164.513C197.939 162.134 194.693 154.3 196.198 147.42C197.732 140.409 201.787 136.647 207.811 136.647C214.473 136.647 218.781 142.977 218.331 152.104C218.028 158.236 215.809 162.158 211.513 164.153C208.214 165.685 206.118 165.777 203.282 164.513Z" fill="#84DCF2"/>
<path d="M107.322 182.087C107.322 188.723 102.766 194.103 97.1451 194.103C91.5245 194.103 86.968 188.723 86.968 182.087C86.968 175.451 91.5245 170.071 97.1451 170.071C102.766 170.071 107.322 175.451 107.322 182.087Z" fill="#F39991"/>
<path d="M239.316 175.309C239.316 181.264 234.898 186.092 229.448 186.092C223.997 186.092 219.579 181.264 219.579 175.309C219.579 169.353 223.997 164.525 229.448 164.525C234.898 164.525 239.316 169.353 239.316 175.309Z" fill="#F39991"/>
<path d="M80.3218 299.038C74.8315 297.818 68.5232 294.324 65.6835 290.931C60.9258 285.245 59.9615 277.277 62.3181 263.123C62.9668 259.227 63.3916 255.96 63.2621 255.862C50.9334 246.585 43.2766 239.699 37.2572 232.474L34.4254 229.074L32.6142 230.283C27.4727 233.713 24.8815 234.499 18.7192 234.499C11.8203 234.499 8.9372 233.42 4.95705 229.349C1.22414 225.531 -0.0640716 222.228 0.00243269 216.646C0.0852833 209.692 2.54788 204.548 10.1647 195.418L13.4115 191.526L11.5747 185.889C7.5903 173.66 5.26756 156.349 5.98619 144.238C8.96879 93.9736 33.7231 55.063 76.778 32.9628C95.8173 23.1898 121.28 18.0078 141.236 19.8447C169.249 22.4232 190.227 30.6379 211.905 47.5173C226.533 58.9077 240.317 76.1222 248.374 93.0625C253.792 104.455 258.335 120.59 259.728 133.385C260.59 141.305 262.265 137.394 264.478 122.298C268.469 95.0657 274.779 48.7255 274.964 45.2884C275.152 41.7877 275.07 41.5542 273.712 41.7458C271.194 42.1007 267.606 40.039 265.455 37.0022C259.082 28.0021 260.46 10.93 268.134 3.83898C270.364 1.77794 275.154 -0.015266 278.387 9.80081e-05C282.956 0.0219901 289.235 4.81913 292 10.3999C295.69 17.8485 296.606 23.2721 296.623 37.764C296.63 45.1287 296.251 55.7894 295.778 61.4546C294.014 82.5707 290.27 133.605 290.27 136.531C290.27 139.259 290.57 139.834 293.254 142.25C294.903 143.735 297.079 146.69 298.121 148.86C299.763 152.28 300.004 153.576 300 158.964C299.998 162.41 299.59 166.323 299.08 167.809C297.772 171.616 293.852 175.752 289.819 177.582C285.695 179.452 286.326 176.155 283.86 208.749C282.931 221.023 281.891 234.619 281.548 238.963C281.205 243.306 280.456 253.04 279.883 260.593C278.45 279.484 277.828 283.347 275.63 287.013C270.758 295.135 258.453 297.151 251.555 290.956C247.76 287.548 246.666 284.359 246.649 276.651C246.637 270.713 249.713 243.414 254.237 209.335L255.754 197.905L253.41 197.169C252.121 196.764 251.026 196.5 250.977 196.582C250.928 196.664 250.182 198.586 249.319 200.852C240.945 222.84 227.383 240.111 207.789 253.739C202.695 257.282 201.698 258.238 202.725 258.596C213.498 262.348 218.413 271.363 214.358 279.932C210.701 287.659 196.99 295.271 186.729 295.271C181.939 295.271 174.068 293.53 170.494 291.68C166.613 289.671 161.832 284.288 159.981 279.843L158.355 275.938L154.998 276.337C138.869 278.255 122.333 278.454 115.603 276.813L113.132 276.209L113.239 281.448C113.39 288.851 111.317 292.616 104.946 296.508C99.3694 299.914 89.0394 300.975 80.3218 299.038ZM99.6219 290.117C101.391 289.2 103.472 287.625 104.247 286.618C105.825 284.565 106.119 280.354 104.928 276.859C104.243 274.85 103.647 274.54 94.9337 271.658C87.746 269.281 76.4165 264.36 70.6648 261.116C70.0882 260.791 68.733 270.488 68.733 274.939C68.733 281.962 71.3682 286.588 76.9511 289.369C83.9746 292.867 93.6978 293.187 99.6219 290.117ZM197.627 284.537C202.92 281.991 207.698 277.35 207.695 274.761C207.688 269.983 202.727 266.25 194.936 265.16C190.834 264.586 190.333 264.679 185.224 266.955C182.261 268.274 176.824 270.372 173.142 271.615C169.459 272.858 166.359 274.143 166.253 274.469C165.895 275.568 169.94 281.34 172.43 283.282C175.952 286.03 180.19 287.046 187.222 286.826C192.33 286.666 193.938 286.312 197.627 284.537ZM148.956 268.204C154.952 267.233 154.694 266.917 146.942 265.729C134.65 263.844 110.004 256.172 98.4279 250.627C88.3836 245.815 75.2478 237.244 65.3763 229.062C59.3508 224.067 56.1014 220.809 51.5273 215.177L48.104 210.961L44.7428 216.28L41.3816 221.599L45.2233 226.333C50.2418 232.516 60.5106 242.573 66.1997 246.877C80.7639 257.895 95.4124 264.023 116.061 267.738C124.807 269.311 140.728 269.537 148.956 268.204ZM183.37 257.89C187.528 256.055 193.418 253.061 196.46 251.238L201.991 247.921L190.91 247.905C175.671 247.885 158.548 245.709 142.04 241.699C111.31 234.234 85.4352 219.307 63.1646 196.197C58.8098 191.678 55.1555 188.096 55.0441 188.236C54.9327 188.377 53.9952 191.633 52.9609 195.473L51.0803 202.454L54.3188 207.096C61.6411 217.592 77.2717 230.654 93.9825 240.241C102.363 245.049 107.366 247.131 121.384 251.645C140.127 257.68 160.6 261.719 170.774 261.39C175.116 261.249 176.851 260.767 183.37 257.89ZM208.452 239.929C212.991 239.455 214.984 237.942 222.205 229.494C226.7 224.235 233.208 215.055 233.208 213.973C233.208 213.738 231.017 215.185 228.341 217.189C215.626 226.708 201.781 234.09 189.572 237.861L181.851 240.246L188.9 240.515C196.141 240.79 201.833 240.62 208.452 239.929ZM168.751 235.841C182.895 233.495 193.73 229.856 205.499 223.5C217.906 216.8 231.623 206.423 239.682 197.641C242.721 194.329 243.42 192.976 245.503 186.377C253.804 160.075 253.566 130.439 244.875 108.149C243.575 104.814 242.662 103.61 240.084 101.829C224.18 90.8398 198.185 86.4398 170.187 89.9976C162.927 90.9202 144.759 95.1946 136.59 97.902C127.515 100.91 112.049 108.74 104.994 113.898C94.8788 121.294 83.0544 134.331 74.1536 147.901C70.1119 154.063 61.2342 171.166 58.6978 177.677L57.8281 179.91L63.5953 186.336C74.4526 198.435 91.5479 212.337 104.533 219.626C119.726 228.156 146.219 236.742 157.684 236.852C160.268 236.878 165.249 236.422 168.751 235.841ZM157.305 179.304C152.957 177.564 150.206 175.313 147.204 171.041C144.407 167.059 143.896 164.238 145.648 162.446C147.163 160.896 148.514 161.111 150.182 163.167C157.233 171.86 159.876 173.416 166.724 172.91C171.483 172.558 173.583 170.914 177.082 164.801C179.567 160.46 181.963 159.485 183.746 162.089C184.617 163.361 184.639 164.003 183.895 166.533C182.154 172.447 177.15 177.806 171.514 179.791C168.143 180.978 160.863 180.728 157.305 179.304ZM113.41 166.715C108.062 163.536 105.596 154.996 107.824 147.37C109.005 143.329 113.439 138.991 117.022 138.371C121.399 137.615 125.53 140.076 128.014 144.917C129.735 148.27 129.91 149.205 129.688 153.814C129.536 156.965 128.956 159.978 128.195 161.578C125.381 167.483 118.641 169.825 113.41 166.715ZM203.282 164.513C197.939 162.134 194.693 154.3 196.198 147.42C197.732 140.409 201.787 136.647 207.811 136.647C214.473 136.647 218.781 142.977 218.331 152.104C218.028 158.236 215.809 162.158 211.513 164.153C208.214 165.685 206.118 165.777 203.282 164.513ZM24.7612 225.998C30.6223 223.247 37.5303 215.781 41.1252 208.312C42.1912 206.097 44.6424 198.878 46.5726 192.27C50.847 177.634 52.7824 172.573 58.5166 161.035C66.6407 144.688 76.9884 130.257 89.3222 118.072C97.8717 109.626 106.053 103.811 117.357 98.1469C146.089 83.7508 188.174 77.7706 215.753 84.165C221.542 85.5072 230.07 88.3901 234.163 90.389C235.981 91.2767 237.558 91.911 237.668 91.7987C237.996 91.4631 231.892 82.3874 228.098 77.5691C224.871 73.4723 224.168 72.9527 219.991 71.5813C210.866 68.5852 206.272 67.8962 192.8 67.5034C182.607 67.2061 175.824 67.4052 166.956 68.5482C162.908 69.07 158.425 69.7884 152.984 70.7462C132.615 74.332 120.591 78.4845 107.797 86.3512C96.0874 93.5508 89.9953 98.4212 80.1015 108.493C61.8896 127.031 50.6219 145.732 41.8514 171.976C36.2827 188.639 35.0559 190.338 24.1499 196.485C16.8765 200.585 12.1895 205.098 9.58431 210.511C6.81601 216.263 7.05663 220.045 10.4195 223.64C11.6613 224.967 13.2815 226.312 14.0199 226.628C16.3775 227.636 21.97 227.309 24.7612 225.998ZM28.338 186.574C29.9369 185.241 32.248 179.749 35.4774 169.608C37.2213 164.131 39.7987 156.561 41.2049 152.784C42.6111 149.007 44.8823 142.672 46.252 138.707C49.8306 128.345 60.5776 106.471 65.5365 99.4553C67.8484 96.1844 71.7036 91.1558 74.1036 88.2807C76.5035 85.4056 78.5474 82.8142 78.6455 82.5221C78.886 81.8057 71.5403 80.2978 65.5369 79.8312C59.6693 79.3752 59.6236 79.4075 53.6578 88.2353C43.8226 102.789 38.2785 113.924 33.511 128.698C27.8911 146.114 23.8788 164.593 22.374 179.989C21.4474 189.47 21.5513 189.816 24.8995 188.397C26.3003 187.804 27.8476 186.983 28.338 186.574ZM287.855 169.727C290.779 168.002 292.538 163.97 292.526 159.017C292.51 151.928 288.869 146.947 283.705 146.947C278.042 146.947 272.753 151.105 271.473 156.563C270.183 162.064 271.927 167.374 275.676 169.357C280.461 171.888 284.011 171.996 287.855 169.727ZM17.0409 168.31C17.0409 163.029 22.7744 138.249 26.8524 125.904C31.7886 110.962 36.5589 101.276 45.8775 87.2743C48.4915 83.3467 50.5495 80.0554 50.4509 79.9604C50.0784 79.6016 40.7223 81.699 37.1807 82.9354L33.4884 84.2243L28.4373 94.47C17.2612 117.14 13.2925 136.414 15.0514 159.479C15.505 165.427 16.1382 170.294 16.4585 170.294C16.7788 170.294 17.0409 169.401 17.0409 168.31ZM76.5127 101.969C80.3164 98.1923 85.3912 93.5571 87.7903 91.6687C90.1893 89.7804 92.1695 88.0366 92.1908 87.7937C92.212 87.5509 91.1013 86.892 89.7227 86.3295L87.216 85.3068L83.8516 88.4009C79.6852 92.2325 72.9468 100.782 68.0165 108.493C62.9474 116.42 62.7174 117.013 66.4196 112.613C68.1672 110.535 72.7091 105.746 76.5127 101.969ZM106.259 78.6996C109.624 76.6652 114.045 74.3088 116.082 73.4631L119.786 71.9255L117.657 70.3193C111.015 65.3067 96.4729 59.1438 86.1429 56.9636C80.3021 55.7309 77.6887 55.5451 70.4113 55.8451C57.3143 56.385 56.97 56.536 47.9802 65.6817C43.7661 69.9688 40.4433 73.6044 40.5962 73.7607C40.749 73.917 42.3843 73.722 44.2301 73.3273C46.076 72.9326 52.7219 72.575 58.9987 72.5325C69.3933 72.4622 71.07 72.6252 77.7959 74.3595C81.8574 75.4068 88.2014 77.621 91.8937 79.28C95.586 80.939 98.9517 82.3194 99.373 82.3475C99.7943 82.3755 102.893 80.734 106.259 78.6996ZM137.974 66.2614C143.237 64.9395 148.264 63.858 149.145 63.858C150.026 63.858 150.646 63.5729 150.523 63.2245C149.829 61.2619 130.966 47.6685 123.782 43.9543C115.847 39.852 99.5072 35.943 92.7182 36.5227C90.3825 36.7222 86.9627 37.9086 82.4952 40.0694C75.5956 43.4065 68.7305 47.3823 68.7362 48.0377C68.738 48.2411 71.6834 48.4403 75.2816 48.4804C82.6054 48.5619 90.7489 50.0418 98.2713 52.6584C104.717 54.9003 119.118 62.3478 123.832 65.8774C125.835 67.3769 127.683 68.6174 127.939 68.6342C128.195 68.651 132.711 67.5833 137.974 66.2614ZM211.39 58.6707C199.182 47.3033 180.302 36.8127 164.732 32.7458C156.559 30.6108 152.467 29.9763 154.239 31.1186C160.613 35.2278 174.218 48.3528 179.554 55.5404L182.523 59.5395L194.271 59.9687C200.732 60.2048 207.832 60.8272 210.047 61.3519C212.262 61.8767 214.377 62.332 214.746 62.3638C215.115 62.3955 213.605 60.7337 211.39 58.6707ZM171.339 60.5063L174.253 60.0812L169.424 54.376C161.604 45.1378 150.492 36.153 139.631 30.2865C136.26 28.4653 134.973 28.1535 130.904 28.1716C125.653 28.1949 118.081 29.0726 112.369 30.3199L108.677 31.1263L111.026 31.7604C125.367 35.6303 138.047 42.9609 153.32 56.2099L159.698 61.7424L164.061 61.3369C166.461 61.1138 169.736 60.7401 171.339 60.5063Z" fill="#7F4C50"/>
<path d="M279.099 33.5829C270.156 33.5829 265.838 22.7994 271.39 12.6321C276.941 2.46475 290.202 17.5617 290.202 25.8804C290.202 34.1991 282.934 132.791 282.183 137.104C281.433 141.418 267.682 149.428 268.306 145.115C272.623 115.229 286.434 33.5829 279.099 33.5829Z" fill="#A74F4C"/>
<path d="M277.866 178.698C277.866 178.698 267.38 163.909 265.838 178.39C264.296 192.87 253.545 264.321 254.428 278.83C255.311 293.339 268.928 292.434 270.464 278.214C274.569 239.633 279.983 179.168 277.866 178.698Z" fill="#A74F4C"/>
</g>
<defs>
<clipPath id="clip0_25_31">
<rect width="300" height="300" fill="white"/>
</clipPath>
</defs>
</svg>
