<svg width="46" height="46" viewBox="0 0 46 46" fill="none" xmlns="http://www.w3.org/2000/svg">
<path d="M18.783 4.12112C17.7866 6.51238 14.9926 7.59266 12.6405 6.50707C8.74874 4.71088 4.711 8.74862 6.50719 12.6404C7.59278 14.9925 6.51251 17.7865 4.12124 18.7829C0.372673 20.3448 0.372673 25.6552 4.12124 27.2171C6.51251 28.2134 7.59278 31.0076 6.50719 33.3595C4.711 37.2513 8.74874 41.2891 12.6405 39.4928C14.9926 38.4072 17.7866 39.4874 18.783 41.8787C20.3449 45.6275 25.6553 45.6275 27.2172 41.8787C28.2136 39.4874 31.0077 38.4072 33.3596 39.4928C37.2514 41.2891 41.2892 37.2513 39.4929 33.3595C38.4073 31.0076 39.4876 28.2134 41.8789 27.2171C45.6276 25.6552 45.6276 20.3448 41.8789 18.7829C39.4876 17.7865 38.4073 14.9925 39.4929 12.6404C41.2892 8.74862 37.2514 4.71088 33.3596 6.50707C31.0077 7.59266 28.2136 6.51238 27.2172 4.12112C25.6553 0.372551 20.3449 0.372551 18.783 4.12112Z" stroke="#323232" stroke-width="2" stroke-linecap="round" stroke-linejoin="round"/>
<path d="M30.25 23C30.25 27.0042 27.0042 30.25 23 30.25C18.9958 30.25 15.75 27.0042 15.75 23C15.75 18.9958 18.9958 15.75 23 15.75C27.0042 15.75 30.25 18.9958 30.25 23Z" stroke="#323232" stroke-width="2"/>
</svg>
